<?xml version="1.0" encoding="utf-8"?>
<!-- Generator: Adobe Illustrator 23.0.6, SVG Export Plug-In . SVG Version: 6.00 Build 0)  -->
<svg version="1.1" id="Layer_1" xmlns="http://www.w3.org/2000/svg" xmlns:xlink="http://www.w3.org/1999/xlink" x="0px" y="0px"
	 viewBox="0 0 800 800" style="enable-background:new 0 0 800 800;" xml:space="preserve">
<style type="text/css">
	.st0{fill:url(#SVGID_1_);}
	.st1{fill:url(#SVGID_2_);}
	.st2{fill:url(#SVGID_3_);}
	.st3{fill:url(#SVGID_4_);}
	.st4{fill:url(#SVGID_5_);}
	.st5{fill:url(#SVGID_6_);}
	.st6{fill:url(#SVGID_7_);}
	.st7{fill:url(#SVGID_8_);}
	.st8{fill:url(#SVGID_9_);}
	.st9{fill:#0E2E4C;}
	.st10{fill:#545454;}
	.st11{fill:url(#SVGID_10_);}
	.st12{fill:url(#SVGID_11_);}
	.st13{fill:url(#SVGID_12_);}
	.st14{fill:url(#SVGID_13_);}
	.st15{fill:url(#SVGID_14_);}
	.st16{fill:url(#SVGID_15_);}
	.st17{fill:url(#SVGID_16_);}
	.st18{fill:url(#SVGID_17_);}
	.st19{fill:url(#SVGID_18_);}
	.st20{fill:url(#SVGID_19_);}
	.st21{fill:url(#SVGID_20_);}
	.st22{fill:url(#SVGID_21_);}
	.st23{fill:url(#SVGID_22_);}
	.st24{fill:url(#SVGID_23_);}
	.st25{fill:url(#SVGID_24_);}
	.st26{fill:url(#SVGID_25_);}
	.st27{fill:url(#SVGID_26_);}
	.st28{fill:url(#SVGID_27_);}
	.st29{fill:url(#SVGID_28_);}
	.st30{fill:none;stroke:#0E2E4C;stroke-width:4;stroke-miterlimit:10;}
</style>
<g>
	<path class="st9" d="M273.36,376.37c0-3.07,0.65-5.78,1.94-8.13c1.29-2.26,2.99-4.17,5.1-5.7c2.1-1.46,4.53-2.55,7.28-3.28
		c2.75-0.73,5.54-1.09,8.38-1.09c3.07,0,6.15,0.45,9.22,1.33c2.99,0.97,5.7,2.39,8.13,4.25v21.12h6.68v13.35h-33.38v14.56h-13.35
		V376.37z M300.06,372.6c-1.05-0.32-2.02-0.61-2.91-0.85c-0.97-0.16-1.82-0.24-2.55-0.24c-2.19,0-4.05,0.49-5.58,1.46
		c-1.54,0.97-2.31,2.31-2.31,4.01v7.89h13.35V372.6z"/>
	<path class="st9" d="M320.09,398.21c-1.05,0-1.94-0.36-2.67-1.09c-0.65-0.65-0.97-1.5-0.97-2.55v-6.07c0-1.05,0.32-1.94,0.97-2.67
		c0.73-0.65,1.62-0.97,2.67-0.97h29.74v-6.31c0-3.48-1.09-5.95-3.28-7.4c-2.27-1.38-4.9-2.06-7.89-2.06c-2.83,0-5.5,0.45-8.01,1.33
		c-0.24-0.49-0.57-1.29-0.97-2.43c-0.41-1.05-0.81-2.18-1.21-3.4c-0.49-1.21-0.93-2.35-1.33-3.4c-0.41-1.05-0.73-1.82-0.97-2.31
		l28.89-29.01l9.47,9.47l-17.6,17.72c4.77,0.89,8.7,3.03,11.77,6.43c2.99,3.48,4.49,8.5,4.49,15.05v6.31h6.68v13.35H320.09z"/>
	<path class="st9" d="M366.21,388.5c0-1.05,0.32-1.94,0.97-2.67c0.73-0.65,1.62-0.97,2.67-0.97h6.68v-50.98
		c0-0.65,0.24-1.21,0.73-1.7s1.05-0.73,1.7-0.73h8.5c0.65,0,1.21,0.24,1.7,0.73s0.73,1.05,0.73,1.7v50.98h6.68v13.35h-26.7
		c-1.05,0-1.94-0.36-2.67-1.09c-0.65-0.65-0.97-1.5-0.97-2.55V388.5z"/>
	<path class="st9" d="M392.91,388.5c0-1.05,0.32-1.94,0.97-2.67c0.73-0.65,1.62-0.97,2.67-0.97h28.16c-0.73-1.7-1.46-3.56-2.19-5.58
		c-0.73-2.02-1.58-3.92-2.55-5.7c-0.97-1.78-2.1-3.28-3.4-4.49c-1.38-1.21-3.03-1.82-4.98-1.82c-1.38,0-2.71,0.24-4.01,0.73
		c-1.3,0.49-2.55,1.17-3.76,2.06l-3.64-9.47c2.18-1.78,4.61-3.24,7.28-4.37c2.67-1.13,5.3-1.7,7.89-1.7c3.72,0,6.72,1.05,8.98,3.16
		c2.26,2.11,4.21,4.69,5.83,7.77c1.62,3.08,3.11,6.35,4.49,9.83c1.29,3.56,2.83,6.76,4.61,9.59h5.83v13.35h-48.55
		c-1.05,0-1.94-0.36-2.67-1.09c-0.65-0.65-0.97-1.5-0.97-2.55V388.5z M417.19,410.96c0-1.54,0.65-2.83,1.94-3.88
		c1.29-1.05,2.87-1.58,4.73-1.58c1.86,0,3.44,0.53,4.73,1.58c1.29,1.05,1.94,2.35,1.94,3.88c0,1.54-0.65,2.83-1.94,3.88
		c-1.3,1.05-2.87,1.58-4.73,1.58c-1.86,0-3.44-0.53-4.73-1.58C417.83,413.79,417.19,412.49,417.19,410.96z"/>
	<path class="st9" d="M468.41,318.59c-0.41-0.32-0.89-0.61-1.46-0.85c-0.65-0.16-1.26-0.24-1.82-0.24c-0.65,0-1.17,0.16-1.58,0.49
		c-0.49,0.32-0.73,0.89-0.73,1.7c0,0.65,0.28,1.25,0.85,1.82c0.56,0.57,1.41,0.85,2.55,0.85h4.61v5.46h-15.05v-5.46h2.91
		c-1.13-0.97-1.7-2.22-1.7-3.76c0-1.86,0.73-3.32,2.18-4.37c1.46-1.05,3.16-1.58,5.1-1.58c1.13,0,2.31,0.2,3.52,0.61
		c1.13,0.49,2.1,1.05,2.91,1.7L468.41,318.59z M467.56,331.46c0.65,0,1.21,0.24,1.7,0.73s0.73,1.05,0.73,1.7v61.9
		c0,0.65-0.24,1.21-0.73,1.7s-1.05,0.73-1.7,0.73h-8.5c-0.65,0-1.21-0.24-1.7-0.73s-0.73-1.05-0.73-1.7v-61.9
		c0-0.65,0.24-1.21,0.73-1.7s1.05-0.73,1.7-0.73H467.56z"/>
	<path class="st9" d="M554.34,384.86v13.35h-6.68v8.5c0,2.67-0.93,4.98-2.79,6.92c-1.94,1.86-4.25,2.79-6.92,2.79h-18.21
		c-2.99,0-5.83-0.57-8.5-1.7c-2.67-1.13-4.98-2.67-6.92-4.61c-2.02-2.02-3.6-4.37-4.73-7.04c-1.13-2.67-1.7-5.5-1.7-8.5V374.3
		c0-0.65,0.24-1.21,0.73-1.7c0.49-0.49,1.05-0.73,1.7-0.73h8.5c0.65,0,1.21,0.24,1.7,0.73c0.49,0.49,0.73,1.05,0.73,1.7v20.27
		c0,2.75,0.93,4.86,2.79,6.31c1.86,1.46,4.04,2.19,6.55,2.19h13.71v-42.48c0-0.65,0.24-1.21,0.73-1.7c0.49-0.49,1.05-0.73,1.7-0.73
		h8.5c0.65,0,1.21,0.24,1.7,0.73c0.49,0.49,0.73,1.05,0.73,1.7v24.28H554.34z M516.11,344.2c0-1.54,0.65-2.83,1.94-3.88
		c1.29-1.05,2.87-1.58,4.73-1.58c1.86,0,3.44,0.53,4.73,1.58c1.29,1.05,1.94,2.35,1.94,3.88c0,1.54-0.65,2.83-1.94,3.88
		c-1.3,1.05-2.87,1.58-4.73,1.58c-1.86,0-3.44-0.53-4.73-1.58C516.75,347.04,516.11,345.74,516.11,344.2z"/>
	<path class="st9" d="M554.34,398.21c-1.05,0-1.94-0.36-2.67-1.09c-0.65-0.65-0.97-1.5-0.97-2.55v-6.07c0-1.05,0.32-1.94,0.97-2.67
		c0.73-0.65,1.62-0.97,2.67-0.97h6.68v-7.53c0-2.67,0.65-5.06,1.94-7.16c1.21-2.02,2.83-3.72,4.85-5.1
		c2.02-1.38,4.37-2.43,7.04-3.16c2.59-0.65,5.3-0.97,8.13-0.97c3.32,0,6.59,0.49,9.83,1.46c3.16,0.97,5.91,2.47,8.25,4.49v20.15
		c0,2.75-0.53,5.14-1.58,7.16c-1.13,2.02-2.59,3.68-4.37,4.98c-1.78,1.29-3.84,2.27-6.19,2.91c-2.35,0.65-4.78,0.97-7.28,0.97
		c-3.24,0-6.19-0.41-8.86-1.21c-2.75-0.89-5.42-2.11-8.01-3.64H554.34z M574.36,387.9c1.05,0.65,2.19,1.09,3.4,1.33
		c1.21,0.32,2.43,0.49,3.64,0.49c1.7,0,3.2-0.28,4.49-0.85c1.21-0.57,1.82-1.38,1.82-2.43V375.4c-0.73-0.32-1.62-0.61-2.67-0.85
		c-1.05-0.16-2.15-0.24-3.28-0.24c-1.94,0-3.64,0.36-5.1,1.09c-1.54,0.81-2.31,2.06-2.31,3.76V387.9z"/>
	<path class="st9" d="M685.42,384.86v13.35h-6.68v8.5c0,2.67-0.93,4.98-2.79,6.92c-1.94,1.86-4.25,2.79-6.92,2.79h-18.21
		c-2.99,0-5.83-0.57-8.5-1.7c-2.67-1.13-4.98-2.67-6.92-4.61c-2.02-2.02-3.6-4.37-4.73-7.04c-1.13-2.67-1.7-5.5-1.7-8.5V374.3
		c0-0.65,0.24-1.21,0.73-1.7c0.49-0.49,1.05-0.73,1.7-0.73h8.5c0.65,0,1.21,0.24,1.7,0.73c0.49,0.49,0.73,1.05,0.73,1.7v20.27
		c0,2.75,0.93,4.86,2.79,6.31c1.86,1.46,4.04,2.19,6.55,2.19h13.71v-42.48c0-0.65,0.24-1.21,0.73-1.7c0.49-0.49,1.05-0.73,1.7-0.73
		h8.5c0.65,0,1.21,0.24,1.7,0.73c0.49,0.49,0.73,1.05,0.73,1.7v24.28H685.42z M647.19,344.2c0-1.54,0.65-2.83,1.94-3.88
		c1.29-1.05,2.87-1.58,4.73-1.58c1.86,0,3.44,0.53,4.73,1.58c1.29,1.05,1.94,2.35,1.94,3.88c0,1.54-0.65,2.83-1.94,3.88
		c-1.3,1.05-2.87,1.58-4.73,1.58c-1.86,0-3.44-0.53-4.73-1.58C647.83,347.04,647.19,345.74,647.19,344.2z"/>
	<path class="st9" d="M681.78,388.5c0-1.05,0.32-1.94,0.97-2.67c0.73-0.65,1.62-0.97,2.67-0.97h28.16c-0.73-1.7-1.46-3.56-2.19-5.58
		c-0.73-2.02-1.58-3.92-2.55-5.7c-0.97-1.78-2.1-3.28-3.4-4.49c-1.38-1.21-3.03-1.82-4.98-1.82c-1.38,0-2.71,0.24-4.01,0.73
		c-1.3,0.49-2.55,1.17-3.76,2.06l-3.64-9.47c2.18-1.78,4.61-3.24,7.28-4.37c2.67-1.13,5.3-1.7,7.89-1.7c3.72,0,6.72,1.05,8.98,3.16
		c2.26,2.11,4.21,4.69,5.83,7.77c1.62,3.08,3.11,6.35,4.49,9.83c1.29,3.56,2.83,6.76,4.61,9.59h5.83v13.35h-48.55
		c-1.05,0-1.94-0.36-2.67-1.09c-0.65-0.65-0.97-1.5-0.97-2.55V388.5z"/>
	<path class="st9" d="M730.33,388.5c0-1.05,0.32-1.94,0.97-2.67c0.73-0.65,1.62-0.97,2.67-0.97h11.53v-24.28
		c0-0.65,0.24-1.21,0.73-1.7s1.05-0.73,1.7-0.73h8.5c0.65,0,1.21,0.24,1.7,0.73s0.73,1.05,0.73,1.7v27.92c0,2.67-0.93,4.94-2.79,6.8
		c-1.94,1.94-4.25,2.91-6.92,2.91h-15.17c-1.05,0-1.94-0.36-2.67-1.09c-0.65-0.65-0.97-1.5-0.97-2.55V388.5z M745.5,344.2
		c0-1.54,0.65-2.83,1.94-3.88c1.29-1.05,2.87-1.58,4.73-1.58c1.86,0,3.44,0.53,4.73,1.58c1.29,1.05,1.94,2.35,1.94,3.88
		c0,1.54-0.65,2.83-1.94,3.88c-1.3,1.05-2.87,1.58-4.73,1.58c-1.86,0-3.44-0.53-4.73-1.58C746.14,347.04,745.5,345.74,745.5,344.2z"
		/>
</g>
<g>
	<path class="st10" d="M381.18,463.07c-1.47,0-2.51-0.29-3.14-0.86c-0.63-0.54-0.94-1.25-0.94-2.12c0-0.65,0.16-1.39,0.49-2.2
		l2.24-5.67c0.3-0.76,0.79-1.39,1.47-1.88c0.65-0.49,1.43-0.73,2.32-0.73h6.93c0.22,0,0.41,0.08,0.57,0.24s0.24,0.35,0.24,0.57v8.15
		h2.24v4.48H381.18z M381.38,444.93c0-0.52,0.22-0.95,0.65-1.3c0.43-0.35,0.96-0.53,1.59-0.53c0.63,0,1.15,0.18,1.59,0.53
		c0.43,0.35,0.65,0.79,0.65,1.3c0,0.52-0.22,0.95-0.65,1.3c-0.44,0.35-0.96,0.53-1.59,0.53c-0.63,0-1.16-0.18-1.59-0.53
		C381.6,445.88,381.38,445.45,381.38,444.93z M386.88,454.1h-3.02l-1.75,4.48h4.77V454.1z M386.68,444.93c0-0.52,0.22-0.95,0.65-1.3
		s0.96-0.53,1.59-0.53c0.63,0,1.15,0.18,1.59,0.53c0.43,0.35,0.65,0.79,0.65,1.3c0,0.52-0.22,0.95-0.65,1.3
		c-0.44,0.35-0.96,0.53-1.59,0.53c-0.63,0-1.16-0.18-1.59-0.53C386.9,445.88,386.68,445.45,386.68,444.93z"/>
	<path class="st10" d="M392.39,459.81c0-0.35,0.11-0.65,0.33-0.9c0.24-0.22,0.54-0.33,0.9-0.33h3.87v-8.15
		c0-0.22,0.08-0.41,0.24-0.57s0.35-0.24,0.57-0.24h2.85c0.22,0,0.41,0.08,0.57,0.24s0.24,0.35,0.24,0.57v8.15h3.87v4.48h-12.23
		c-0.35,0-0.65-0.12-0.9-0.37c-0.22-0.22-0.33-0.5-0.33-0.86V459.81z M393.61,467.35c0-0.52,0.22-0.95,0.65-1.3
		c0.43-0.35,0.96-0.53,1.59-0.53c0.62,0,1.15,0.18,1.59,0.53c0.43,0.35,0.65,0.79,0.65,1.3c0,0.52-0.22,0.95-0.65,1.3
		c-0.44,0.35-0.97,0.53-1.59,0.53c-0.63,0-1.16-0.18-1.59-0.53C393.83,468.3,393.61,467.87,393.61,467.35z M398.91,467.35
		c0-0.52,0.22-0.95,0.65-1.3c0.43-0.35,0.96-0.53,1.59-0.53c0.62,0,1.15,0.18,1.59,0.53c0.43,0.35,0.65,0.79,0.65,1.3
		c0,0.52-0.22,0.95-0.65,1.3c-0.44,0.35-0.97,0.53-1.59,0.53c-0.63,0-1.16-0.18-1.59-0.53C399.13,468.3,398.91,467.87,398.91,467.35
		z"/>
	<path class="st10" d="M404.62,459.81c0-0.35,0.11-0.65,0.33-0.9c0.24-0.22,0.54-0.33,0.9-0.33h8.15v4.48h-8.15
		c-0.35,0-0.65-0.12-0.9-0.37c-0.22-0.22-0.33-0.5-0.33-0.86V459.81z"/>
	<path class="st10" d="M412.77,459.81c0-0.35,0.11-0.65,0.33-0.9c0.24-0.22,0.54-0.33,0.9-0.33h3.87v-8.15
		c0-0.22,0.08-0.41,0.24-0.57s0.35-0.24,0.57-0.24h2.85c0.22,0,0.41,0.08,0.57,0.24s0.24,0.35,0.24,0.57v9.38
		c0,0.9-0.31,1.66-0.94,2.28c-0.65,0.65-1.43,0.98-2.32,0.98h-5.1c-0.35,0-0.65-0.12-0.9-0.37c-0.22-0.22-0.33-0.5-0.33-0.86V459.81
		z M415.87,467.35c0-0.52,0.22-0.95,0.65-1.3c0.43-0.35,0.96-0.53,1.59-0.53c0.63,0,1.15,0.18,1.59,0.53
		c0.43,0.35,0.65,0.79,0.65,1.3c0,0.52-0.22,0.95-0.65,1.3c-0.44,0.35-0.96,0.53-1.59,0.53c-0.63,0-1.16-0.18-1.59-0.53
		C416.08,468.3,415.87,467.87,415.87,467.35z"/>
	<path class="st10" d="M430.5,440.65c0.22,0,0.41,0.08,0.57,0.24s0.24,0.35,0.24,0.57v17.12h2.24v4.48h-5.91
		c-0.22,0-0.41-0.08-0.57-0.24s-0.24-0.35-0.24-0.57v-20.79c0-0.22,0.08-0.41,0.24-0.57s0.35-0.24,0.57-0.24H430.5z"/>
	<path class="st10" d="M432.33,459.81c0-0.35,0.11-0.65,0.33-0.9c0.24-0.22,0.54-0.33,0.9-0.33h3.87v-8.15
		c0-0.22,0.08-0.41,0.24-0.57s0.35-0.24,0.57-0.24h2.85c0.22,0,0.41,0.08,0.57,0.24s0.24,0.35,0.24,0.57v8.15h3.87v4.48h-12.23
		c-0.35,0-0.65-0.12-0.9-0.37c-0.22-0.22-0.33-0.5-0.33-0.86V459.81z M437.43,467.35c0-0.52,0.22-0.95,0.65-1.3
		c0.43-0.35,0.96-0.53,1.59-0.53c0.62,0,1.15,0.18,1.59,0.53c0.43,0.35,0.65,0.79,0.65,1.3c0,0.52-0.22,0.95-0.65,1.3
		c-0.44,0.35-0.97,0.53-1.59,0.53c-0.63,0-1.16-0.18-1.59-0.53C437.65,468.3,437.43,467.87,437.43,467.35z"/>
	<path class="st10" d="M449.66,450.43c0-0.22,0.08-0.41,0.24-0.57s0.35-0.24,0.57-0.24h2.85c0.22,0,0.41,0.08,0.57,0.24
		s0.24,0.35,0.24,0.57v8.15h3.67v-8.15c0-0.22,0.08-0.41,0.24-0.57s0.35-0.24,0.57-0.24h2.85c0.22,0,0.41,0.08,0.57,0.24
		s0.24,0.35,0.24,0.57v8.15h3.67v-8.15c0-0.22,0.08-0.41,0.24-0.57s0.35-0.24,0.57-0.24h2.85c0.22,0,0.41,0.08,0.57,0.24
		s0.24,0.35,0.24,0.57v9.38c0,0.9-0.31,1.66-0.94,2.28c-0.65,0.65-1.43,0.98-2.32,0.98h-21.4c-0.35,0-0.65-0.12-0.9-0.37
		c-0.22-0.22-0.33-0.5-0.33-0.86v-2.04c0-0.35,0.11-0.65,0.33-0.9c0.24-0.22,0.54-0.33,0.9-0.33h3.87V450.43z M455.16,445.75
		c0-0.52,0.22-0.95,0.65-1.3c0.43-0.35,0.96-0.53,1.59-0.53c0.63,0,1.15,0.18,1.59,0.53c0.43,0.35,0.65,0.79,0.65,1.3
		c0,0.52-0.22,0.95-0.65,1.3c-0.44,0.35-0.96,0.53-1.59,0.53c-0.63,0-1.16-0.18-1.59-0.53C455.38,446.7,455.16,446.26,455.16,445.75
		z M457.81,441.67c0-0.52,0.22-0.95,0.65-1.3c0.43-0.35,0.96-0.53,1.59-0.53c0.63,0,1.15,0.18,1.59,0.53
		c0.43,0.35,0.65,0.79,0.65,1.3c0,0.52-0.22,0.95-0.65,1.3c-0.44,0.35-0.96,0.53-1.59,0.53c-0.63,0-1.16-0.18-1.59-0.53
		C458.03,442.62,457.81,442.19,457.81,441.67z M460.46,445.75c0-0.52,0.22-0.95,0.65-1.3s0.96-0.53,1.59-0.53
		c0.63,0,1.15,0.18,1.59,0.53c0.43,0.35,0.65,0.79,0.65,1.3c0,0.52-0.22,0.95-0.65,1.3c-0.44,0.35-0.96,0.53-1.59,0.53
		c-0.63,0-1.16-0.18-1.59-0.53C460.68,446.7,460.46,446.26,460.46,445.75z"/>
	<path class="st10" d="M483.9,463.07c-1.47,0-2.51-0.29-3.14-0.86c-0.63-0.54-0.94-1.25-0.94-2.12c0-0.65,0.16-1.39,0.49-2.2
		l2.24-5.67c0.3-0.76,0.79-1.39,1.47-1.88c0.65-0.49,1.43-0.73,2.32-0.73h6.93c0.22,0,0.41,0.08,0.57,0.24s0.24,0.35,0.24,0.57v8.15
		h2.24v4.48H483.9z M484.1,444.93c0-0.52,0.22-0.95,0.65-1.3c0.43-0.35,0.96-0.53,1.59-0.53c0.63,0,1.15,0.18,1.59,0.53
		c0.43,0.35,0.65,0.79,0.65,1.3c0,0.52-0.22,0.95-0.65,1.3c-0.44,0.35-0.96,0.53-1.59,0.53c-0.63,0-1.16-0.18-1.59-0.53
		C484.32,445.88,484.1,445.45,484.1,444.93z M489.61,454.1h-3.02l-1.75,4.48h4.77V454.1z M489.4,444.93c0-0.52,0.22-0.95,0.65-1.3
		s0.96-0.53,1.59-0.53c0.63,0,1.15,0.18,1.59,0.53c0.43,0.35,0.65,0.79,0.65,1.3c0,0.52-0.22,0.95-0.65,1.3
		c-0.44,0.35-0.96,0.53-1.59,0.53c-0.63,0-1.16-0.18-1.59-0.53C489.62,445.88,489.4,445.45,489.4,444.93z"/>
	<path class="st10" d="M495.11,459.81c0-0.35,0.11-0.65,0.33-0.9c0.24-0.22,0.54-0.33,0.9-0.33h8.15v4.48h-8.15
		c-0.35,0-0.65-0.12-0.9-0.37c-0.22-0.22-0.33-0.5-0.33-0.86V459.81z"/>
	<path class="st10" d="M503.26,459.81c0-0.35,0.11-0.65,0.33-0.9c0.24-0.22,0.54-0.33,0.9-0.33h5.91v-8.15
		c0-0.22,0.08-0.41,0.24-0.57s0.35-0.24,0.57-0.24h2.85c0.22,0,0.41,0.08,0.57,0.24s0.24,0.35,0.24,0.57v9.38
		c0,0.9-0.31,1.66-0.94,2.28c-0.65,0.65-1.43,0.98-2.32,0.98h-7.13c-0.35,0-0.65-0.12-0.9-0.37c-0.22-0.22-0.33-0.5-0.33-0.86
		V459.81z M503.67,468.57c0-0.52,0.22-0.95,0.65-1.3c0.43-0.35,0.96-0.53,1.59-0.53c0.63,0,1.15,0.18,1.59,0.53
		c0.43,0.35,0.65,0.79,0.65,1.3s-0.22,0.95-0.65,1.3c-0.44,0.35-0.96,0.53-1.59,0.53c-0.63,0-1.16-0.18-1.59-0.53
		C503.89,469.53,503.67,469.09,503.67,468.57z M508.97,468.57c0-0.52,0.22-0.95,0.65-1.3c0.43-0.35,0.96-0.53,1.59-0.53
		c0.63,0,1.15,0.18,1.59,0.53c0.43,0.35,0.65,0.79,0.65,1.3s-0.22,0.95-0.65,1.3c-0.44,0.35-0.96,0.53-1.59,0.53
		c-0.63,0-1.16-0.18-1.59-0.53C509.19,469.53,508.97,469.09,508.97,468.57z"/>
	<path class="st10" d="M523.85,449.62c0.22,0,0.41,0.08,0.57,0.24s0.24,0.35,0.24,0.57v8.15h2.24v4.48h-2.24
		c0,1.22-0.16,2.28-0.49,3.18s-0.77,1.63-1.35,2.2s-1.24,0.99-2,1.26c-0.79,0.27-1.63,0.41-2.53,0.41c-0.98,0-1.96-0.14-2.94-0.41
		l0.98-3.87c0.41,0.08,0.8,0.12,1.18,0.12c0.79,0,1.43-0.22,1.92-0.65c0.49-0.46,0.73-1.21,0.73-2.24v-12.64
		c0-0.22,0.08-0.41,0.24-0.57s0.35-0.24,0.57-0.24H523.85z"/>
	<path class="st10" d="M525.68,459.81c0-0.35,0.11-0.65,0.33-0.9c0.24-0.22,0.54-0.33,0.9-0.33h3.87v-8.15
		c0-0.22,0.08-0.41,0.24-0.57s0.35-0.24,0.57-0.24h2.85c0.22,0,0.41,0.08,0.57,0.24s0.24,0.35,0.24,0.57v8.15h3.87v4.48h-12.23
		c-0.35,0-0.65-0.12-0.9-0.37c-0.22-0.22-0.33-0.5-0.33-0.86V459.81z M526.91,467.35c0-0.52,0.22-0.95,0.65-1.3
		c0.43-0.35,0.96-0.53,1.59-0.53c0.62,0,1.15,0.18,1.59,0.53c0.43,0.35,0.65,0.79,0.65,1.3c0,0.52-0.22,0.95-0.65,1.3
		c-0.44,0.35-0.97,0.53-1.59,0.53c-0.63,0-1.16-0.18-1.59-0.53C527.12,468.3,526.91,467.87,526.91,467.35z M532.21,467.35
		c0-0.52,0.22-0.95,0.65-1.3c0.43-0.35,0.96-0.53,1.59-0.53c0.62,0,1.15,0.18,1.59,0.53c0.43,0.35,0.65,0.79,0.65,1.3
		c0,0.52-0.22,0.95-0.65,1.3c-0.44,0.35-0.97,0.53-1.59,0.53c-0.63,0-1.16-0.18-1.59-0.53C532.42,468.3,532.21,467.87,532.21,467.35
		z"/>
	<path class="st10" d="M537.91,459.81c0-0.35,0.11-0.65,0.33-0.9c0.24-0.22,0.54-0.33,0.9-0.33h9.46c-0.24-0.57-0.49-1.2-0.73-1.88
		c-0.24-0.68-0.53-1.32-0.86-1.92c-0.33-0.6-0.71-1.1-1.14-1.51c-0.46-0.41-1.02-0.61-1.67-0.61c-0.46,0-0.91,0.08-1.35,0.24
		c-0.44,0.16-0.86,0.39-1.26,0.69l-1.22-3.18c0.73-0.6,1.55-1.09,2.45-1.47c0.9-0.38,1.78-0.57,2.65-0.57
		c1.25,0,2.26,0.35,3.02,1.06c0.76,0.71,1.41,1.58,1.96,2.61c0.54,1.03,1.05,2.13,1.51,3.3c0.43,1.2,0.95,2.27,1.55,3.22h1.96v4.48
		h-16.31c-0.35,0-0.65-0.12-0.9-0.37c-0.22-0.22-0.33-0.5-0.33-0.86V459.81z M543.21,444.52c0-0.52,0.22-0.95,0.65-1.3
		c0.43-0.35,0.96-0.53,1.59-0.53c0.63,0,1.15,0.18,1.59,0.53c0.43,0.35,0.65,0.79,0.65,1.3c0,0.52-0.22,0.95-0.65,1.3
		c-0.44,0.35-0.96,0.53-1.59,0.53c-0.63,0-1.16-0.18-1.59-0.53C543.43,445.48,543.21,445.04,543.21,444.52z"/>
	<path class="st10" d="M568.28,463.07c-1.47,0-2.51-0.29-3.14-0.86c-0.63-0.54-0.94-1.25-0.94-2.12c0-0.65,0.16-1.39,0.49-2.2
		l2.24-5.67c0.3-0.76,0.79-1.39,1.47-1.88c0.65-0.49,1.43-0.73,2.32-0.73h6.93c0.22,0,0.41,0.08,0.57,0.24s0.24,0.35,0.24,0.57v8.15
		h2.24v4.48H568.28z M568.49,444.93c0-0.52,0.22-0.95,0.65-1.3c0.43-0.35,0.96-0.53,1.59-0.53c0.63,0,1.15,0.18,1.59,0.53
		c0.43,0.35,0.65,0.79,0.65,1.3c0,0.52-0.22,0.95-0.65,1.3c-0.44,0.35-0.96,0.53-1.59,0.53c-0.63,0-1.16-0.18-1.59-0.53
		C568.7,445.88,568.49,445.45,568.49,444.93z M573.99,454.1h-3.02l-1.75,4.48h4.77V454.1z M573.78,444.93c0-0.52,0.22-0.95,0.65-1.3
		s0.96-0.53,1.59-0.53c0.63,0,1.15,0.18,1.59,0.53c0.43,0.35,0.65,0.79,0.65,1.3c0,0.52-0.22,0.95-0.65,1.3
		c-0.44,0.35-0.96,0.53-1.59,0.53c-0.63,0-1.16-0.18-1.59-0.53C574,445.88,573.78,445.45,573.78,444.93z"/>
	<path class="st10" d="M579.49,459.81c0-0.35,0.11-0.65,0.33-0.9c0.24-0.22,0.54-0.33,0.9-0.33h3.87v-8.15
		c0-0.22,0.08-0.41,0.24-0.57s0.35-0.24,0.57-0.24h2.85c0.22,0,0.41,0.08,0.57,0.24s0.24,0.35,0.24,0.57v8.15h3.87v4.48h-12.23
		c-0.35,0-0.65-0.12-0.9-0.37c-0.22-0.22-0.33-0.5-0.33-0.86V459.81z M580.71,467.35c0-0.52,0.22-0.95,0.65-1.3
		c0.43-0.35,0.96-0.53,1.59-0.53c0.62,0,1.15,0.18,1.59,0.53c0.43,0.35,0.65,0.79,0.65,1.3c0,0.52-0.22,0.95-0.65,1.3
		c-0.44,0.35-0.97,0.53-1.59,0.53c-0.63,0-1.16-0.18-1.59-0.53C580.93,468.3,580.71,467.87,580.71,467.35z M586.01,467.35
		c0-0.52,0.22-0.95,0.65-1.3c0.43-0.35,0.96-0.53,1.59-0.53c0.62,0,1.15,0.18,1.59,0.53c0.43,0.35,0.65,0.79,0.65,1.3
		c0,0.52-0.22,0.95-0.65,1.3c-0.44,0.35-0.97,0.53-1.59,0.53c-0.63,0-1.16-0.18-1.59-0.53C586.23,468.3,586.01,467.87,586.01,467.35
		z"/>
	<path class="st10" d="M591.72,459.81c0-0.35,0.11-0.65,0.33-0.9c0.24-0.22,0.54-0.33,0.9-0.33h8.15v4.48h-8.15
		c-0.35,0-0.65-0.12-0.9-0.37c-0.22-0.22-0.33-0.5-0.33-0.86V459.81z"/>
	<path class="st10" d="M599.87,459.81c0-0.35,0.11-0.65,0.33-0.9c0.24-0.22,0.54-0.33,0.9-0.33h4.61l-1.92-3.34
		c-0.14-0.27-0.24-0.58-0.33-0.94c-0.08-0.33-0.12-0.65-0.12-0.98c0-0.46,0.07-0.92,0.2-1.39c0.14-0.43,0.34-0.83,0.61-1.18
		c0.27-0.33,0.61-0.6,1.02-0.82c0.41-0.22,0.88-0.33,1.43-0.33h9.38c0.54,0,1.02,0.11,1.43,0.33s0.75,0.49,1.02,0.82
		c0.27,0.35,0.48,0.75,0.61,1.18c0.14,0.46,0.2,0.92,0.2,1.39c0,0.33-0.03,0.65-0.08,0.98c-0.08,0.33-0.2,0.64-0.37,0.94l-1.96,3.34
		h4.65v4.48H601.1c-0.35,0-0.65-0.12-0.9-0.37c-0.22-0.22-0.33-0.5-0.33-0.86V459.81z M608.23,454.1l2.41,4.48h1.26l2.4-4.48H608.23
		z"/>
	<path class="st10" d="M620.25,459.81c0-0.35,0.11-0.65,0.33-0.9c0.24-0.22,0.54-0.33,0.9-0.33h2.24v-2.12
		c0-1.06,0.2-1.97,0.61-2.73c0.38-0.73,0.9-1.35,1.55-1.83c0.63-0.46,1.35-0.8,2.16-1.02c0.79-0.22,1.59-0.33,2.41-0.33
		c0.81,0,1.63,0.11,2.45,0.33c0.82,0.24,1.54,0.61,2.16,1.1c0.62,0.49,1.14,1.11,1.55,1.88c0.38,0.76,0.57,1.67,0.57,2.73v2h2.24
		v4.48h-3.38c-0.63,0.71-1.44,1.22-2.45,1.55c-1.01,0.33-2.04,0.49-3.1,0.49c-1.11,0-2.17-0.16-3.18-0.49
		c-1.01-0.35-1.85-0.87-2.53-1.55h-3.3c-0.35,0-0.65-0.12-0.9-0.37c-0.22-0.22-0.33-0.5-0.33-0.86V459.81z M628.2,459.4
		c0,0.41,0.23,0.71,0.69,0.9c0.46,0.22,0.98,0.33,1.55,0.33c0.54,0,1.06-0.11,1.55-0.33c0.46-0.19,0.69-0.49,0.69-0.9v-2.61
		c0-0.63-0.23-1.07-0.69-1.35c-0.49-0.27-1.01-0.41-1.55-0.41c-0.57,0-1.09,0.14-1.55,0.41c-0.46,0.27-0.69,0.72-0.69,1.35V459.4z"
		/>
	<path class="st10" d="M638.19,459.81c0-0.35,0.11-0.65,0.33-0.9c0.24-0.22,0.54-0.33,0.9-0.33h9.46c-0.24-0.57-0.49-1.2-0.73-1.88
		c-0.24-0.68-0.53-1.32-0.86-1.92c-0.33-0.6-0.71-1.1-1.14-1.51c-0.46-0.41-1.02-0.61-1.67-0.61c-0.46,0-0.91,0.08-1.35,0.24
		c-0.44,0.16-0.86,0.39-1.26,0.69l-1.22-3.18c0.73-0.6,1.55-1.09,2.45-1.47c0.9-0.38,1.78-0.57,2.65-0.57
		c1.25,0,2.26,0.35,3.02,1.06c0.76,0.71,1.41,1.58,1.96,2.61c0.54,1.03,1.05,2.13,1.51,3.3c0.43,1.2,0.95,2.27,1.55,3.22h1.96v4.48
		h-16.31c-0.35,0-0.65-0.12-0.9-0.37c-0.22-0.22-0.33-0.5-0.33-0.86V459.81z M646.34,467.35c0-0.52,0.22-0.95,0.65-1.3
		c0.43-0.35,0.96-0.53,1.59-0.53c0.63,0,1.15,0.18,1.59,0.53c0.43,0.35,0.65,0.79,0.65,1.3c0,0.52-0.22,0.95-0.65,1.3
		c-0.44,0.35-0.96,0.53-1.59,0.53c-0.63,0-1.16-0.18-1.59-0.53C646.56,468.3,646.34,467.87,646.34,467.35z"/>
</g>
<g>
	<g>
		<g>
			<linearGradient id="SVGID_1_" gradientUnits="userSpaceOnUse" x1="39.5443" y1="385.7071" x2="170.3514" y2="385.7071">
				<stop  offset="0" style="stop-color:#0E2E4C"/>
				<stop  offset="0.014" style="stop-color:#0E314F"/>
				<stop  offset="0.3349" style="stop-color:#04689A"/>
				<stop  offset="0.4832" style="stop-color:#007EB7"/>
				<stop  offset="0.5476" style="stop-color:#036FA2"/>
				<stop  offset="0.6814" style="stop-color:#08537D"/>
				<stop  offset="0.8057" style="stop-color:#0B3F62"/>
				<stop  offset="0.9157" style="stop-color:#0D3252"/>
				<stop  offset="1" style="stop-color:#0E2E4C"/>
			</linearGradient>
			<path class="st0" d="M139.01,369.95c12.84,7.4,23.36,16.42,31.34,25.78c-5.32,5.09-11.57,9.82-18.5,13.87
				c-5.79-10.87-16.54-21.85-30.88-30.17c-28.57-16.65-60.49-16.65-71.36-0.12c-5.09,7.63-4.74,17.57,0,27.63
				c0.34,3.7,0.92,7.4,1.5,10.98c-12.03-16.99-15.38-34.92-6.71-47.98C58.86,347.99,101.19,347.99,139.01,369.95L139.01,369.95z"/>
			<linearGradient id="SVGID_2_" gradientUnits="userSpaceOnUse" x1="46.4888" y1="358.4724" x2="189.5527" y2="358.4724">
				<stop  offset="0" style="stop-color:#0E2E4C"/>
				<stop  offset="0.014" style="stop-color:#0E314F"/>
				<stop  offset="0.3349" style="stop-color:#04689A"/>
				<stop  offset="0.4832" style="stop-color:#007EB7"/>
				<stop  offset="0.5476" style="stop-color:#036FA2"/>
				<stop  offset="0.6814" style="stop-color:#08537D"/>
				<stop  offset="0.8057" style="stop-color:#0B3F62"/>
				<stop  offset="0.9157" style="stop-color:#0D3252"/>
				<stop  offset="1" style="stop-color:#0E2E4C"/>
			</linearGradient>
			<path class="st1" d="M183.18,355.04c2.2,1.27,4.28,2.54,6.37,3.93c0,8.21-3.59,17.46-10.07,26.36
				c-7.75-7.52-17.12-14.57-27.63-20.7c-40.37-23.47-85.24-25.44-105.36-5.9c0.69-1.27,1.39-2.54,2.19-3.81
				C69.27,323.82,129.41,323.82,183.18,355.04L183.18,355.04z"/>
			<linearGradient id="SVGID_3_" gradientUnits="userSpaceOnUse" x1="112.1786" y1="309.6006" x2="141.6712" y2="309.6006">
				<stop  offset="0" style="stop-color:#0E2E4C"/>
				<stop  offset="0.014" style="stop-color:#0E314F"/>
				<stop  offset="0.3349" style="stop-color:#04689A"/>
				<stop  offset="0.4832" style="stop-color:#007EB7"/>
				<stop  offset="0.5476" style="stop-color:#036FA2"/>
				<stop  offset="0.6814" style="stop-color:#08537D"/>
				<stop  offset="0.8057" style="stop-color:#0B3F62"/>
				<stop  offset="0.9157" style="stop-color:#0D3252"/>
				<stop  offset="1" style="stop-color:#0E2E4C"/>
			</linearGradient>
			<path class="st2" d="M126.86,294.8c8.21,0,14.81,6.59,14.81,14.8c0,8.21-6.6,14.8-14.81,14.8c-8.09,0-14.69-6.59-14.69-14.8
				C112.18,301.39,118.77,294.8,126.86,294.8L126.86,294.8z"/>
		</g>
		<g>
			<linearGradient id="SVGID_4_" gradientUnits="userSpaceOnUse" x1="93.4428" y1="440.4477" x2="178.906" y2="440.4477">
				<stop  offset="0" style="stop-color:#929191"/>
				<stop  offset="1" style="stop-color:#CAC9C9"/>
			</linearGradient>
			<path class="st3" d="M93.44,419.44c0-14.8,2.43-28.44,6.7-40c7.06,2.08,14.23,5.09,21.28,9.02
				c-6.71,10.52-10.75,25.32-10.87,41.97c0,32.95,15.96,60.58,35.74,61.74c9.14,0.58,17.46-4.74,23.82-13.75
				c3.12-2.2,6.01-4.51,8.79-6.82c-8.67,18.96-22.55,30.75-38.28,29.83C114.49,499.91,93.33,463.14,93.44,419.44L93.44,419.44z"/>
			<linearGradient id="SVGID_5_" gradientUnits="userSpaceOnUse" x1="58.4023" y1="440.792" x2="129.9853" y2="440.792">
				<stop  offset="0" style="stop-color:#929191"/>
				<stop  offset="1" style="stop-color:#CAC9C9"/>
			</linearGradient>
			<path class="st4" d="M58.4,388.68c0-2.54,0.11-4.97,0.23-7.51c7.17-4.16,17-5.55,27.87-4.4c-2.66,10.4-4.05,21.97-4.17,34.22
				c-0.11,46.71,20.59,86.48,47.65,94.11c-1.5,0.11-2.89,0.11-4.39,0C88.35,502.91,58.28,450.77,58.4,388.68L58.4,388.68z"/>
			<linearGradient id="SVGID_6_" gradientUnits="userSpaceOnUse" x1="32.3861" y1="460.1374" x2="61.975" y2="460.1374">
				<stop  offset="0" style="stop-color:#929191"/>
				<stop  offset="1" style="stop-color:#CAC9C9"/>
			</linearGradient>
			<path class="st5" d="M34.34,467.54c-4.04-7.05-1.62-16.19,5.44-20.24c7.05-4.05,16.07-1.61,20.24,5.44
				c4.05,7.05,1.62,16.07-5.44,20.23C47.53,477.02,38.51,474.59,34.34,467.54L34.34,467.54z"/>
		</g>
		<g>
			<linearGradient id="SVGID_7_" gradientUnits="userSpaceOnUse" x1="118.3069" y1="391.0486" x2="209.7016" y2="391.0486">
				<stop  offset="0" style="stop-color:#F18826"/>
				<stop  offset="0.5531" style="stop-color:#FAB522"/>
				<stop  offset="1" style="stop-color:#F49325"/>
			</linearGradient>
			<path class="st6" d="M159.02,434.24c-12.72,7.29-25.79,12.03-37.94,14.11c-1.74-7.05-2.78-14.8-2.78-22.89
				c12.38,0.46,27.18-3.36,41.63-11.57c28.69-16.42,44.64-44.17,35.74-61.86c-4.16-8.21-12.83-12.83-23.93-13.76
				c-3.36-1.5-6.82-2.89-10.29-4.16c20.81-1.97,37.93,4.16,44.99,18.15C218.23,375.74,197.07,412.5,159.02,434.24L159.02,434.24z"/>
			<linearGradient id="SVGID_8_" gradientUnits="userSpaceOnUse" x1="125.5949" y1="421.5192" x2="221.8268" y2="421.5192">
				<stop  offset="0" style="stop-color:#F18826"/>
				<stop  offset="0.5531" style="stop-color:#FAB522"/>
				<stop  offset="1" style="stop-color:#F49325"/>
			</linearGradient>
			<path class="st7" d="M149.88,479.91c-2.19,1.15-4.28,2.43-6.47,3.46c-7.17-4.04-13.42-11.79-17.81-21.85
				c10.29-3.01,21.05-7.52,31.69-13.53c40.48-23.24,64.65-61.05,57.71-88.33c0.81,1.27,1.51,2.54,2.2,3.82
				C233.96,396.89,203.78,448.92,149.88,479.91L149.88,479.91z"/>
			<linearGradient id="SVGID_9_" gradientUnits="userSpaceOnUse" x1="202.6264" y1="453.8945" x2="232.2176" y2="453.8945">
				<stop  offset="0" style="stop-color:#F18826"/>
				<stop  offset="0.5531" style="stop-color:#FAB522"/>
				<stop  offset="1" style="stop-color:#F49325"/>
			</linearGradient>
			<path class="st8" d="M230.26,461.29c-4.17,7.06-13.19,9.49-20.24,5.44c-7.06-4.16-9.48-13.18-5.44-20.23
				c4.17-7.05,13.19-9.48,20.24-5.43C231.88,445.22,234.31,454.24,230.26,461.29L230.26,461.29z"/>
		</g>
	</g>
</g>
<line class="st30" x1="257.26" y1="314.05" x2="257.26" y2="481.81"/>
</svg>
