<?xml version="1.0" encoding="utf-8"?>
<!-- Generator: Adobe Illustrator 23.0.6, SVG Export Plug-In . SVG Version: 6.00 Build 0)  -->
<svg version="1.1" id="Layer_1" xmlns="http://www.w3.org/2000/svg" xmlns:xlink="http://www.w3.org/1999/xlink" x="0px" y="0px"
	 viewBox="0 0 800 800" style="enable-background:new 0 0 800 800;" xml:space="preserve">
<style type="text/css">
	.st0{fill:url(#SVGID_1_);}
	.st1{fill:url(#SVGID_2_);}
	.st2{fill:url(#SVGID_3_);}
	.st3{fill:url(#SVGID_4_);}
	.st4{fill:url(#SVGID_5_);}
	.st5{fill:url(#SVGID_6_);}
	.st6{fill:url(#SVGID_7_);}
	.st7{fill:url(#SVGID_8_);}
	.st8{fill:url(#SVGID_9_);}
	.st9{fill:#0E2E4C;}
	.st10{fill:#545454;}
	.st11{fill:url(#SVGID_10_);}
	.st12{fill:url(#SVGID_11_);}
	.st13{fill:url(#SVGID_12_);}
	.st14{fill:url(#SVGID_13_);}
	.st15{fill:url(#SVGID_14_);}
	.st16{fill:url(#SVGID_15_);}
	.st17{fill:url(#SVGID_16_);}
	.st18{fill:url(#SVGID_17_);}
	.st19{fill:url(#SVGID_18_);}
	.st20{fill:url(#SVGID_19_);}
	.st21{fill:url(#SVGID_20_);}
	.st22{fill:url(#SVGID_21_);}
	.st23{fill:url(#SVGID_22_);}
	.st24{fill:url(#SVGID_23_);}
	.st25{fill:url(#SVGID_24_);}
	.st26{fill:url(#SVGID_25_);}
	.st27{fill:url(#SVGID_26_);}
	.st28{fill:url(#SVGID_27_);}
	.st29{fill:url(#SVGID_28_);}
	.st30{fill:none;stroke:#0E2E4C;stroke-width:4;stroke-miterlimit:10;}
</style>
<g>
	<g>
		<path class="st9" d="M550.46,470.24c0-1.16,0.24-2.19,0.73-3.08c0.49-0.86,1.13-1.58,1.93-2.16c0.79-0.55,1.71-0.96,2.75-1.24
			c1.04-0.28,2.1-0.41,3.17-0.41c1.16,0,2.32,0.17,3.49,0.5c1.13,0.37,2.16,0.9,3.07,1.61v7.98h2.52v5.05h-12.62v5.51h-5.05V470.24z
			 M560.56,468.82c-0.4-0.12-0.77-0.23-1.1-0.32c-0.37-0.06-0.69-0.09-0.96-0.09c-0.83,0-1.53,0.18-2.11,0.55
			c-0.58,0.37-0.87,0.87-0.87,1.51v2.98h5.05V468.82z"/>
		<path class="st9" d="M568.13,478.5c-0.4,0-0.73-0.14-1.01-0.41c-0.24-0.24-0.37-0.57-0.37-0.96v-2.29c0-0.4,0.12-0.73,0.37-1.01
			c0.28-0.24,0.61-0.37,1.01-0.37h11.24v-2.39c0-1.31-0.41-2.25-1.24-2.8c-0.86-0.52-1.85-0.78-2.98-0.78
			c-1.07,0-2.08,0.17-3.03,0.5c-0.09-0.18-0.21-0.49-0.37-0.92c-0.15-0.4-0.31-0.83-0.46-1.28c-0.18-0.46-0.35-0.89-0.5-1.29
			c-0.15-0.4-0.28-0.69-0.37-0.87l10.92-10.97l3.58,3.58l-6.65,6.7c1.8,0.34,3.29,1.15,4.45,2.43c1.13,1.32,1.7,3.21,1.7,5.69v2.39
			h2.52v5.05H568.13z"/>
		<path class="st9" d="M585.57,474.83c0-0.4,0.12-0.73,0.37-1.01c0.28-0.24,0.61-0.37,1.01-0.37h2.52v-19.27
			c0-0.25,0.09-0.46,0.28-0.64s0.4-0.28,0.64-0.28h3.21c0.24,0,0.46,0.09,0.64,0.28s0.28,0.4,0.28,0.64v19.27h2.52v5.05h-10.1
			c-0.4,0-0.73-0.14-1.01-0.41c-0.24-0.24-0.37-0.57-0.37-0.96V474.83z"/>
		<path class="st9" d="M595.66,474.83c0-0.4,0.12-0.73,0.37-1.01c0.28-0.24,0.61-0.37,1.01-0.37h10.65
			c-0.28-0.64-0.55-1.35-0.83-2.11c-0.28-0.76-0.6-1.48-0.96-2.16c-0.37-0.67-0.8-1.24-1.28-1.7c-0.52-0.46-1.15-0.69-1.88-0.69
			c-0.52,0-1.03,0.09-1.51,0.28c-0.49,0.18-0.96,0.44-1.42,0.78l-1.38-3.58c0.83-0.67,1.74-1.22,2.75-1.65
			c1.01-0.43,2-0.64,2.98-0.64c1.41,0,2.54,0.4,3.4,1.19c0.86,0.8,1.59,1.77,2.2,2.94c0.61,1.16,1.18,2.4,1.7,3.72
			c0.49,1.35,1.07,2.55,1.74,3.63h2.2v5.05h-18.36c-0.4,0-0.73-0.14-1.01-0.41c-0.24-0.24-0.37-0.57-0.37-0.96V474.83z
			 M604.84,483.32c0-0.58,0.24-1.07,0.73-1.47c0.49-0.4,1.09-0.6,1.79-0.6c0.7,0,1.3,0.2,1.79,0.6c0.49,0.4,0.73,0.89,0.73,1.47
			s-0.25,1.07-0.73,1.47c-0.49,0.4-1.09,0.6-1.79,0.6c-0.7,0-1.3-0.2-1.79-0.6C605.09,484.39,604.84,483.9,604.84,483.32z"/>
		<path class="st9" d="M624.21,448.4c-0.15-0.12-0.34-0.23-0.55-0.32c-0.25-0.06-0.47-0.09-0.69-0.09c-0.25,0-0.44,0.06-0.6,0.18
			c-0.18,0.12-0.28,0.34-0.28,0.64c0,0.25,0.11,0.47,0.32,0.69c0.21,0.21,0.53,0.32,0.96,0.32h1.74v2.06h-5.69v-2.06h1.1
			c-0.43-0.37-0.64-0.84-0.64-1.42c0-0.7,0.28-1.25,0.83-1.65c0.55-0.4,1.19-0.6,1.93-0.6c0.43,0,0.87,0.08,1.33,0.23
			c0.43,0.18,0.8,0.4,1.1,0.64L624.21,448.4z M623.89,453.26c0.24,0,0.46,0.09,0.64,0.28s0.28,0.4,0.28,0.64v23.4
			c0,0.25-0.09,0.46-0.28,0.64s-0.4,0.28-0.64,0.28h-3.21c-0.25,0-0.46-0.09-0.64-0.28s-0.28-0.4-0.28-0.64v-23.4
			c0-0.25,0.09-0.46,0.28-0.64s0.4-0.28,0.64-0.28H623.89z"/>
		<path class="st9" d="M656.7,473.45v5.05h-2.52v3.21c0,1.01-0.35,1.88-1.06,2.62c-0.73,0.7-1.61,1.06-2.62,1.06h-6.88
			c-1.13,0-2.2-0.21-3.21-0.64c-1.01-0.43-1.88-1.01-2.62-1.74c-0.77-0.76-1.36-1.65-1.79-2.66c-0.43-1.01-0.64-2.08-0.64-3.21
			v-7.66c0-0.25,0.09-0.46,0.28-0.64s0.4-0.28,0.64-0.28h3.21c0.24,0,0.46,0.09,0.64,0.28s0.28,0.4,0.28,0.64v7.66
			c0,1.04,0.35,1.84,1.06,2.39c0.7,0.55,1.53,0.83,2.48,0.83h5.19v-16.06c0-0.25,0.09-0.46,0.27-0.64s0.4-0.28,0.64-0.28h3.21
			c0.24,0,0.46,0.09,0.64,0.28s0.28,0.4,0.28,0.64v9.18H656.7z M642.24,458.08c0-0.58,0.24-1.07,0.73-1.47
			c0.49-0.4,1.09-0.6,1.79-0.6c0.7,0,1.3,0.2,1.79,0.6c0.49,0.4,0.73,0.89,0.73,1.47c0,0.58-0.25,1.07-0.73,1.47
			c-0.49,0.4-1.09,0.6-1.79,0.6c-0.7,0-1.3-0.2-1.79-0.6C642.49,459.15,642.24,458.66,642.24,458.08z"/>
		<path class="st9" d="M656.7,478.5c-0.4,0-0.73-0.14-1.01-0.41c-0.24-0.24-0.37-0.57-0.37-0.96v-2.29c0-0.4,0.12-0.73,0.37-1.01
			c0.28-0.24,0.61-0.37,1.01-0.37h2.52v-2.84c0-1.01,0.24-1.91,0.73-2.71c0.46-0.76,1.07-1.41,1.84-1.93
			c0.76-0.52,1.65-0.92,2.66-1.19c0.98-0.25,2-0.37,3.07-0.37c1.25,0,2.49,0.18,3.72,0.55c1.19,0.37,2.23,0.93,3.12,1.7v7.62
			c0,1.04-0.2,1.94-0.6,2.71c-0.43,0.77-0.98,1.39-1.65,1.88c-0.67,0.49-1.45,0.86-2.34,1.1c-0.89,0.24-1.81,0.37-2.75,0.37
			c-1.22,0-2.34-0.15-3.35-0.46c-1.04-0.34-2.05-0.8-3.03-1.38H656.7z M664.27,474.6c0.4,0.25,0.83,0.41,1.28,0.5
			c0.46,0.12,0.92,0.18,1.38,0.18c0.64,0,1.21-0.11,1.7-0.32c0.46-0.21,0.69-0.52,0.69-0.92v-4.18c-0.28-0.12-0.61-0.23-1.01-0.32
			c-0.4-0.06-0.81-0.09-1.24-0.09c-0.73,0-1.38,0.14-1.93,0.41c-0.58,0.31-0.87,0.78-0.87,1.42V474.6z"/>
		<path class="st9" d="M706.26,473.45v5.05h-2.52v3.21c0,1.01-0.35,1.88-1.06,2.62c-0.73,0.7-1.61,1.06-2.62,1.06h-6.88
			c-1.13,0-2.2-0.21-3.21-0.64c-1.01-0.43-1.88-1.01-2.62-1.74c-0.77-0.76-1.36-1.65-1.79-2.66c-0.43-1.01-0.64-2.08-0.64-3.21
			v-7.66c0-0.25,0.09-0.46,0.28-0.64s0.4-0.28,0.64-0.28h3.21c0.24,0,0.46,0.09,0.64,0.28s0.28,0.4,0.28,0.64v7.66
			c0,1.04,0.35,1.84,1.06,2.39c0.7,0.55,1.53,0.83,2.48,0.83h5.19v-16.06c0-0.25,0.09-0.46,0.27-0.64s0.4-0.28,0.64-0.28h3.21
			c0.24,0,0.46,0.09,0.64,0.28s0.28,0.4,0.28,0.64v9.18H706.26z M691.8,458.08c0-0.58,0.24-1.07,0.73-1.47
			c0.49-0.4,1.09-0.6,1.79-0.6c0.7,0,1.3,0.2,1.79,0.6c0.49,0.4,0.73,0.89,0.73,1.47c0,0.58-0.25,1.07-0.73,1.47
			c-0.49,0.4-1.09,0.6-1.79,0.6c-0.7,0-1.3-0.2-1.79-0.6C692.05,459.15,691.8,458.66,691.8,458.08z"/>
		<path class="st9" d="M704.88,474.83c0-0.4,0.12-0.73,0.37-1.01c0.28-0.24,0.61-0.37,1.01-0.37h10.65
			c-0.28-0.64-0.55-1.35-0.83-2.11c-0.28-0.76-0.6-1.48-0.96-2.16c-0.37-0.67-0.8-1.24-1.28-1.7c-0.52-0.46-1.15-0.69-1.88-0.69
			c-0.52,0-1.03,0.09-1.51,0.28c-0.49,0.18-0.96,0.44-1.42,0.78l-1.38-3.58c0.83-0.67,1.74-1.22,2.75-1.65
			c1.01-0.43,2-0.64,2.98-0.64c1.41,0,2.54,0.4,3.4,1.19c0.86,0.8,1.59,1.77,2.2,2.94c0.61,1.16,1.18,2.4,1.7,3.72
			c0.49,1.35,1.07,2.55,1.74,3.63h2.2v5.05h-18.36c-0.4,0-0.73-0.14-1.01-0.41c-0.24-0.24-0.37-0.57-0.37-0.96V474.83z"/>
		<path class="st9" d="M723.24,474.83c0-0.4,0.12-0.73,0.37-1.01c0.28-0.24,0.61-0.37,1.01-0.37h4.36v-9.18
			c0-0.25,0.09-0.46,0.28-0.64s0.4-0.28,0.64-0.28h3.21c0.24,0,0.46,0.09,0.64,0.28s0.28,0.4,0.28,0.64v10.55
			c0,1.01-0.35,1.87-1.06,2.57c-0.73,0.73-1.61,1.1-2.62,1.1h-5.74c-0.4,0-0.73-0.14-1.01-0.41c-0.24-0.24-0.37-0.57-0.37-0.96
			V474.83z M728.97,458.08c0-0.58,0.24-1.07,0.73-1.47c0.49-0.4,1.09-0.6,1.79-0.6c0.7,0,1.3,0.2,1.79,0.6
			c0.49,0.4,0.73,0.89,0.73,1.47c0,0.58-0.25,1.07-0.73,1.47c-0.49,0.4-1.09,0.6-1.79,0.6c-0.7,0-1.3-0.2-1.79-0.6
			C729.22,459.15,728.97,458.66,728.97,458.08z"/>
	</g>
	<g>
		<path class="st10" d="M591.23,503.02c-0.56,0-0.95-0.11-1.19-0.32c-0.24-0.21-0.35-0.47-0.35-0.8c0-0.25,0.06-0.52,0.19-0.83
			l0.85-2.14c0.11-0.29,0.3-0.52,0.55-0.71c0.25-0.18,0.54-0.28,0.88-0.28h2.62c0.08,0,0.15,0.03,0.22,0.09
			c0.06,0.06,0.09,0.13,0.09,0.21v3.08h0.85v1.7H591.23z M591.3,496.16c0-0.2,0.08-0.36,0.25-0.49c0.16-0.13,0.36-0.2,0.6-0.2
			s0.44,0.07,0.6,0.2c0.16,0.13,0.25,0.3,0.25,0.49s-0.08,0.36-0.25,0.49c-0.16,0.13-0.36,0.2-0.6,0.2s-0.44-0.07-0.6-0.2
			C591.39,496.52,591.3,496.36,591.3,496.16z M593.38,499.63h-1.14l-0.66,1.7h1.8V499.63z M593.31,496.16c0-0.2,0.08-0.36,0.25-0.49
			c0.16-0.13,0.36-0.2,0.6-0.2c0.24,0,0.44,0.07,0.6,0.2c0.16,0.13,0.25,0.3,0.25,0.49s-0.08,0.36-0.25,0.49
			c-0.16,0.13-0.36,0.2-0.6,0.2c-0.24,0-0.44-0.07-0.6-0.2C593.39,496.52,593.31,496.36,593.31,496.16z"/>
		<path class="st10" d="M595.46,501.79c0-0.13,0.04-0.25,0.12-0.34c0.09-0.08,0.21-0.12,0.34-0.12h1.46v-3.08
			c0-0.08,0.03-0.15,0.09-0.21c0.06-0.06,0.13-0.09,0.22-0.09h1.08c0.08,0,0.15,0.03,0.22,0.09c0.06,0.06,0.09,0.13,0.09,0.21v3.08
			h1.46v1.7h-4.62c-0.13,0-0.25-0.05-0.34-0.14c-0.08-0.08-0.12-0.19-0.12-0.32V501.79z M595.93,504.64c0-0.2,0.08-0.36,0.25-0.49
			c0.16-0.13,0.36-0.2,0.6-0.2s0.44,0.07,0.6,0.2c0.16,0.13,0.25,0.3,0.25,0.49s-0.08,0.36-0.25,0.49c-0.16,0.13-0.36,0.2-0.6,0.2
			s-0.44-0.07-0.6-0.2C596.01,505,595.93,504.84,595.93,504.64z M597.93,504.64c0-0.2,0.08-0.36,0.25-0.49
			c0.16-0.13,0.36-0.2,0.6-0.2s0.44,0.07,0.6,0.2c0.16,0.13,0.25,0.3,0.25,0.49s-0.08,0.36-0.25,0.49c-0.16,0.13-0.36,0.2-0.6,0.2
			s-0.44-0.07-0.6-0.2C598.01,505,597.93,504.84,597.93,504.64z"/>
		<path class="st10" d="M600.09,501.79c0-0.13,0.04-0.25,0.12-0.34c0.09-0.08,0.21-0.12,0.34-0.12h3.08v1.7h-3.08
			c-0.13,0-0.25-0.05-0.34-0.14c-0.08-0.08-0.12-0.19-0.12-0.32V501.79z"/>
		<path class="st10" d="M603.17,501.79c0-0.13,0.04-0.25,0.12-0.34c0.09-0.08,0.21-0.12,0.34-0.12h1.46v-3.08
			c0-0.08,0.03-0.15,0.09-0.21c0.06-0.06,0.13-0.09,0.22-0.09h1.08c0.08,0,0.15,0.03,0.22,0.09c0.06,0.06,0.09,0.13,0.09,0.21v3.54
			c0,0.34-0.12,0.63-0.35,0.86c-0.25,0.25-0.54,0.37-0.88,0.37h-1.93c-0.13,0-0.25-0.05-0.34-0.14c-0.08-0.08-0.12-0.19-0.12-0.32
			V501.79z M604.34,504.64c0-0.2,0.08-0.36,0.25-0.49c0.16-0.13,0.36-0.2,0.6-0.2s0.44,0.07,0.6,0.2c0.16,0.13,0.25,0.3,0.25,0.49
			s-0.08,0.36-0.25,0.49c-0.16,0.13-0.36,0.2-0.6,0.2s-0.44-0.07-0.6-0.2C604.42,505,604.34,504.84,604.34,504.64z"/>
		<path class="st10" d="M609.87,494.55c0.08,0,0.15,0.03,0.22,0.09c0.06,0.06,0.09,0.13,0.09,0.22v6.47h0.85v1.7h-2.23
			c-0.08,0-0.15-0.03-0.22-0.09c-0.06-0.06-0.09-0.13-0.09-0.22v-7.86c0-0.08,0.03-0.15,0.09-0.22c0.06-0.06,0.13-0.09,0.22-0.09
			H609.87z"/>
		<path class="st10" d="M610.57,501.79c0-0.13,0.04-0.25,0.12-0.34c0.09-0.08,0.21-0.12,0.34-0.12h1.46v-3.08
			c0-0.08,0.03-0.15,0.09-0.21c0.06-0.06,0.13-0.09,0.22-0.09h1.08c0.08,0,0.15,0.03,0.22,0.09c0.06,0.06,0.09,0.13,0.09,0.21v3.08
			h1.46v1.7h-4.62c-0.13,0-0.25-0.05-0.34-0.14c-0.08-0.08-0.12-0.19-0.12-0.32V501.79z M612.5,504.64c0-0.2,0.08-0.36,0.25-0.49
			c0.16-0.13,0.36-0.2,0.6-0.2c0.24,0,0.44,0.07,0.6,0.2c0.16,0.13,0.25,0.3,0.25,0.49s-0.08,0.36-0.25,0.49
			c-0.16,0.13-0.36,0.2-0.6,0.2c-0.24,0-0.44-0.07-0.6-0.2C612.58,505,612.5,504.84,612.5,504.64z"/>
		<path class="st10" d="M617.12,498.24c0-0.08,0.03-0.15,0.09-0.21c0.06-0.06,0.13-0.09,0.22-0.09h1.08c0.08,0,0.15,0.03,0.22,0.09
			c0.06,0.06,0.09,0.13,0.09,0.21v3.08h1.39v-3.08c0-0.08,0.03-0.15,0.09-0.21c0.06-0.06,0.13-0.09,0.22-0.09h1.08
			c0.08,0,0.15,0.03,0.22,0.09c0.06,0.06,0.09,0.13,0.09,0.21v3.08h1.39v-3.08c0-0.08,0.03-0.15,0.09-0.21
			c0.06-0.06,0.13-0.09,0.22-0.09h1.08c0.08,0,0.15,0.03,0.22,0.09c0.06,0.06,0.09,0.13,0.09,0.21v3.54c0,0.34-0.12,0.63-0.35,0.86
			c-0.25,0.25-0.54,0.37-0.88,0.37h-8.09c-0.13,0-0.25-0.05-0.34-0.14c-0.08-0.08-0.12-0.19-0.12-0.32v-0.77
			c0-0.13,0.04-0.25,0.12-0.34c0.09-0.08,0.21-0.12,0.34-0.12h1.46V498.24z M619.2,496.47c0-0.2,0.08-0.36,0.25-0.49
			c0.16-0.13,0.36-0.2,0.6-0.2s0.44,0.07,0.6,0.2c0.16,0.13,0.25,0.3,0.25,0.49s-0.08,0.36-0.25,0.49c-0.16,0.13-0.36,0.2-0.6,0.2
			s-0.44-0.07-0.6-0.2C619.28,496.83,619.2,496.67,619.2,496.47z M620.2,494.93c0-0.19,0.08-0.36,0.25-0.49
			c0.16-0.13,0.36-0.2,0.6-0.2c0.24,0,0.44,0.07,0.6,0.2c0.16,0.13,0.25,0.3,0.25,0.49c0,0.2-0.08,0.36-0.25,0.49
			c-0.16,0.13-0.37,0.2-0.6,0.2c-0.24,0-0.44-0.07-0.6-0.2C620.28,495.29,620.2,495.13,620.2,494.93z M621.2,496.47
			c0-0.2,0.08-0.36,0.25-0.49c0.16-0.13,0.36-0.2,0.6-0.2s0.44,0.07,0.6,0.2c0.16,0.13,0.25,0.3,0.25,0.49s-0.08,0.36-0.25,0.49
			c-0.16,0.13-0.36,0.2-0.6,0.2s-0.44-0.07-0.6-0.2C621.29,496.83,621.2,496.67,621.2,496.47z"/>
		<path class="st10" d="M630.07,503.02c-0.56,0-0.95-0.11-1.19-0.32c-0.24-0.21-0.35-0.47-0.35-0.8c0-0.25,0.06-0.52,0.19-0.83
			l0.85-2.14c0.11-0.29,0.3-0.52,0.55-0.71c0.25-0.18,0.54-0.28,0.88-0.28h2.62c0.08,0,0.15,0.03,0.22,0.09
			c0.06,0.06,0.09,0.13,0.09,0.21v3.08h0.85v1.7H630.07z M630.14,496.16c0-0.2,0.08-0.36,0.25-0.49c0.16-0.13,0.36-0.2,0.6-0.2
			s0.44,0.07,0.6,0.2c0.16,0.13,0.25,0.3,0.25,0.49s-0.08,0.36-0.25,0.49c-0.16,0.13-0.36,0.2-0.6,0.2s-0.44-0.07-0.6-0.2
			C630.22,496.52,630.14,496.36,630.14,496.16z M632.22,499.63h-1.14l-0.66,1.7h1.8V499.63z M632.15,496.16
			c0-0.2,0.08-0.36,0.25-0.49c0.16-0.13,0.36-0.2,0.6-0.2c0.24,0,0.44,0.07,0.6,0.2c0.16,0.13,0.25,0.3,0.25,0.49
			s-0.08,0.36-0.25,0.49c-0.16,0.13-0.36,0.2-0.6,0.2c-0.24,0-0.44-0.07-0.6-0.2C632.23,496.52,632.15,496.36,632.15,496.16z"/>
		<path class="st10" d="M634.3,501.79c0-0.13,0.04-0.25,0.12-0.34c0.09-0.08,0.21-0.12,0.34-0.12h3.08v1.7h-3.08
			c-0.13,0-0.25-0.05-0.34-0.14c-0.08-0.08-0.12-0.19-0.12-0.32V501.79z"/>
		<path class="st10" d="M637.39,501.79c0-0.13,0.04-0.25,0.12-0.34c0.09-0.08,0.21-0.12,0.34-0.12h2.23v-3.08
			c0-0.08,0.03-0.15,0.09-0.21c0.06-0.06,0.13-0.09,0.22-0.09h1.08c0.08,0,0.15,0.03,0.22,0.09c0.06,0.06,0.09,0.13,0.09,0.21v3.54
			c0,0.34-0.12,0.63-0.35,0.86c-0.25,0.25-0.54,0.37-0.88,0.37h-2.7c-0.13,0-0.25-0.05-0.34-0.14c-0.08-0.08-0.12-0.19-0.12-0.32
			V501.79z M637.54,505.1c0-0.2,0.08-0.36,0.25-0.49c0.16-0.13,0.36-0.2,0.6-0.2c0.24,0,0.44,0.07,0.6,0.2
			c0.16,0.13,0.25,0.3,0.25,0.49c0,0.19-0.08,0.36-0.25,0.49c-0.16,0.13-0.36,0.2-0.6,0.2c-0.24,0-0.44-0.07-0.6-0.2
			C637.62,505.46,637.54,505.3,637.54,505.1z M639.54,505.1c0-0.2,0.08-0.36,0.25-0.49c0.16-0.13,0.36-0.2,0.6-0.2
			s0.44,0.07,0.6,0.2c0.16,0.13,0.25,0.3,0.25,0.49c0,0.19-0.08,0.36-0.25,0.49c-0.16,0.13-0.36,0.2-0.6,0.2s-0.44-0.07-0.6-0.2
			C639.63,505.46,639.54,505.3,639.54,505.1z"/>
		<path class="st10" d="M645.17,497.94c0.08,0,0.15,0.03,0.22,0.09c0.06,0.06,0.09,0.13,0.09,0.21v3.08h0.85v1.7h-0.85
			c0,0.46-0.06,0.86-0.18,1.2c-0.12,0.34-0.29,0.62-0.51,0.83s-0.47,0.38-0.76,0.48c-0.3,0.1-0.62,0.15-0.96,0.15
			c-0.37,0-0.74-0.05-1.11-0.15l0.37-1.46c0.15,0.03,0.3,0.05,0.45,0.05c0.3,0,0.54-0.08,0.72-0.25c0.19-0.17,0.28-0.46,0.28-0.85
			v-4.78c0-0.08,0.03-0.15,0.09-0.21c0.06-0.06,0.13-0.09,0.22-0.09H645.17z"/>
		<path class="st10" d="M645.86,501.79c0-0.13,0.04-0.25,0.12-0.34c0.09-0.08,0.21-0.12,0.34-0.12h1.46v-3.08
			c0-0.08,0.03-0.15,0.09-0.21c0.06-0.06,0.13-0.09,0.22-0.09h1.08c0.08,0,0.15,0.03,0.22,0.09c0.06,0.06,0.09,0.13,0.09,0.21v3.08
			h1.46v1.7h-4.62c-0.13,0-0.25-0.05-0.34-0.14c-0.08-0.08-0.12-0.19-0.12-0.32V501.79z M646.32,504.64c0-0.2,0.08-0.36,0.25-0.49
			c0.16-0.13,0.36-0.2,0.6-0.2s0.44,0.07,0.6,0.2c0.16,0.13,0.25,0.3,0.25,0.49s-0.08,0.36-0.25,0.49c-0.16,0.13-0.36,0.2-0.6,0.2
			s-0.44-0.07-0.6-0.2C646.41,505,646.32,504.84,646.32,504.64z M648.33,504.64c0-0.2,0.08-0.36,0.25-0.49
			c0.16-0.13,0.36-0.2,0.6-0.2s0.44,0.07,0.6,0.2c0.16,0.13,0.25,0.3,0.25,0.49s-0.08,0.36-0.25,0.49c-0.16,0.13-0.36,0.2-0.6,0.2
			s-0.44-0.07-0.6-0.2C648.41,505,648.33,504.84,648.33,504.64z"/>
		<path class="st10" d="M650.49,501.79c0-0.13,0.04-0.25,0.12-0.34c0.09-0.08,0.21-0.12,0.34-0.12h3.58
			c-0.09-0.22-0.19-0.45-0.28-0.71c-0.09-0.26-0.2-0.5-0.32-0.72c-0.12-0.23-0.27-0.42-0.43-0.57c-0.17-0.15-0.39-0.23-0.63-0.23
			c-0.17,0-0.34,0.03-0.51,0.09c-0.16,0.06-0.32,0.15-0.48,0.26l-0.46-1.2c0.28-0.23,0.59-0.41,0.92-0.55
			c0.34-0.14,0.67-0.22,1-0.22c0.47,0,0.85,0.13,1.14,0.4c0.29,0.27,0.53,0.6,0.74,0.99s0.4,0.81,0.57,1.25
			c0.16,0.45,0.36,0.86,0.59,1.22h0.74v1.7h-6.17c-0.13,0-0.25-0.05-0.34-0.14c-0.08-0.08-0.12-0.19-0.12-0.32V501.79z
			 M652.49,496.01c0-0.2,0.08-0.36,0.25-0.49c0.16-0.13,0.36-0.2,0.6-0.2c0.24,0,0.44,0.07,0.6,0.2c0.16,0.13,0.25,0.3,0.25,0.49
			s-0.08,0.36-0.25,0.49c-0.16,0.13-0.37,0.2-0.6,0.2c-0.24,0-0.44-0.07-0.6-0.2C652.57,496.37,652.49,496.21,652.49,496.01z"/>
		<path class="st10" d="M661.97,503.02c-0.56,0-0.95-0.11-1.19-0.32c-0.24-0.21-0.35-0.47-0.35-0.8c0-0.25,0.06-0.52,0.19-0.83
			l0.85-2.14c0.11-0.29,0.3-0.52,0.55-0.71c0.25-0.18,0.54-0.28,0.88-0.28h2.62c0.08,0,0.15,0.03,0.22,0.09
			c0.06,0.06,0.09,0.13,0.09,0.21v3.08h0.85v1.7H661.97z M662.04,496.16c0-0.2,0.08-0.36,0.25-0.49c0.16-0.13,0.36-0.2,0.6-0.2
			s0.44,0.07,0.6,0.2c0.16,0.13,0.25,0.3,0.25,0.49s-0.08,0.36-0.25,0.49c-0.16,0.13-0.36,0.2-0.6,0.2s-0.44-0.07-0.6-0.2
			C662.13,496.52,662.04,496.36,662.04,496.16z M664.13,499.63h-1.14l-0.66,1.7h1.8V499.63z M664.05,496.16
			c0-0.2,0.08-0.36,0.25-0.49c0.16-0.13,0.36-0.2,0.6-0.2c0.24,0,0.44,0.07,0.6,0.2c0.16,0.13,0.25,0.3,0.25,0.49
			s-0.08,0.36-0.25,0.49c-0.16,0.13-0.36,0.2-0.6,0.2c-0.24,0-0.44-0.07-0.6-0.2C664.13,496.52,664.05,496.36,664.05,496.16z"/>
		<path class="st10" d="M666.21,501.79c0-0.13,0.04-0.25,0.12-0.34c0.09-0.08,0.21-0.12,0.34-0.12h1.46v-3.08
			c0-0.08,0.03-0.15,0.09-0.21c0.06-0.06,0.13-0.09,0.22-0.09h1.08c0.08,0,0.15,0.03,0.22,0.09c0.06,0.06,0.09,0.13,0.09,0.21v3.08
			h1.46v1.7h-4.62c-0.13,0-0.25-0.05-0.34-0.14c-0.08-0.08-0.12-0.19-0.12-0.32V501.79z M666.67,504.64c0-0.2,0.08-0.36,0.25-0.49
			c0.16-0.13,0.36-0.2,0.6-0.2s0.44,0.07,0.6,0.2c0.16,0.13,0.25,0.3,0.25,0.49s-0.08,0.36-0.25,0.49c-0.16,0.13-0.36,0.2-0.6,0.2
			s-0.44-0.07-0.6-0.2C666.75,505,666.67,504.84,666.67,504.64z M668.67,504.64c0-0.2,0.08-0.36,0.25-0.49
			c0.16-0.13,0.36-0.2,0.6-0.2s0.44,0.07,0.6,0.2c0.16,0.13,0.25,0.3,0.25,0.49s-0.08,0.36-0.25,0.49c-0.16,0.13-0.36,0.2-0.6,0.2
			s-0.44-0.07-0.6-0.2C668.75,505,668.67,504.84,668.67,504.64z"/>
		<path class="st10" d="M670.83,501.79c0-0.13,0.04-0.25,0.12-0.34c0.09-0.08,0.21-0.12,0.34-0.12h3.08v1.7h-3.08
			c-0.13,0-0.25-0.05-0.34-0.14c-0.08-0.08-0.12-0.19-0.12-0.32V501.79z"/>
		<path class="st10" d="M673.91,501.79c0-0.13,0.04-0.25,0.12-0.34c0.09-0.08,0.21-0.12,0.34-0.12h1.74l-0.72-1.26
			c-0.05-0.1-0.09-0.22-0.12-0.35c-0.03-0.12-0.05-0.25-0.05-0.37c0-0.17,0.03-0.35,0.08-0.52c0.05-0.16,0.13-0.31,0.23-0.45
			c0.1-0.12,0.23-0.23,0.39-0.31c0.15-0.08,0.33-0.12,0.54-0.12H680c0.21,0,0.39,0.04,0.54,0.12c0.15,0.08,0.28,0.18,0.39,0.31
			c0.1,0.13,0.18,0.28,0.23,0.45c0.05,0.17,0.08,0.35,0.08,0.52c0,0.12-0.01,0.25-0.03,0.37c-0.03,0.12-0.08,0.24-0.14,0.35
			l-0.74,1.26h1.76v1.7h-7.71c-0.13,0-0.25-0.05-0.34-0.14c-0.08-0.08-0.12-0.19-0.12-0.32V501.79z M677.07,499.63l0.91,1.7h0.48
			l0.91-1.7H677.07z"/>
		<path class="st10" d="M681.62,501.79c0-0.13,0.04-0.25,0.12-0.34c0.09-0.08,0.21-0.12,0.34-0.12h0.85v-0.8
			c0-0.4,0.08-0.74,0.23-1.03c0.14-0.28,0.34-0.51,0.59-0.69c0.24-0.17,0.51-0.3,0.82-0.39c0.3-0.08,0.6-0.12,0.91-0.12
			c0.31,0,0.62,0.04,0.92,0.12c0.31,0.09,0.58,0.23,0.82,0.42c0.24,0.19,0.43,0.42,0.59,0.71c0.14,0.29,0.22,0.63,0.22,1.03v0.75
			h0.85v1.7h-1.28c-0.24,0.27-0.54,0.46-0.92,0.59c-0.38,0.12-0.77,0.18-1.17,0.18c-0.42,0-0.82-0.06-1.2-0.18
			c-0.38-0.13-0.7-0.33-0.96-0.59h-1.25c-0.13,0-0.25-0.05-0.34-0.14c-0.08-0.08-0.12-0.19-0.12-0.32V501.79z M684.62,501.64
			c0,0.15,0.09,0.27,0.26,0.34c0.17,0.08,0.37,0.12,0.59,0.12c0.21,0,0.4-0.04,0.59-0.12c0.17-0.07,0.26-0.19,0.26-0.34v-0.99
			c0-0.24-0.09-0.41-0.26-0.51c-0.19-0.1-0.38-0.15-0.59-0.15c-0.22,0-0.41,0.05-0.59,0.15c-0.17,0.1-0.26,0.27-0.26,0.51V501.64z"
			/>
		<path class="st10" d="M688.4,501.79c0-0.13,0.04-0.25,0.12-0.34c0.09-0.08,0.21-0.12,0.34-0.12h3.58
			c-0.09-0.22-0.19-0.45-0.28-0.71c-0.09-0.26-0.2-0.5-0.32-0.72c-0.12-0.23-0.27-0.42-0.43-0.57c-0.17-0.15-0.39-0.23-0.63-0.23
			c-0.17,0-0.34,0.03-0.51,0.09c-0.16,0.06-0.32,0.15-0.48,0.26l-0.46-1.2c0.28-0.23,0.59-0.41,0.92-0.55
			c0.34-0.14,0.67-0.22,1-0.22c0.47,0,0.85,0.13,1.14,0.4c0.29,0.27,0.53,0.6,0.74,0.99s0.4,0.81,0.57,1.25
			c0.16,0.45,0.36,0.86,0.59,1.22h0.74v1.7h-6.17c-0.13,0-0.25-0.05-0.34-0.14c-0.08-0.08-0.12-0.19-0.12-0.32V501.79z
			 M691.48,504.64c0-0.2,0.08-0.36,0.25-0.49c0.16-0.13,0.36-0.2,0.6-0.2s0.44,0.07,0.6,0.2c0.16,0.13,0.25,0.3,0.25,0.49
			s-0.08,0.36-0.25,0.49c-0.16,0.13-0.36,0.2-0.6,0.2s-0.44-0.07-0.6-0.2C691.56,505,691.48,504.84,691.48,504.64z"/>
	</g>
	<path class="st10" d="M573.57,287.8v147.35h137.34V287.8H573.57z M690.7,330.28c7.71,15.34-6.12,39.37-30.99,53.58
		c-8.32,4.76-16.86,7.86-24.8,9.22c-1.13-4.61-1.81-9.67-1.81-14.96c8.09,0.3,17.77-2.19,27.21-7.56
		c18.75-10.73,29.18-28.87,23.36-40.43c-2.72-5.36-8.38-8.39-15.64-8.99c-2.2-0.98-4.46-1.89-6.73-2.72
		C674.89,317.13,686.08,321.13,690.7,330.28z M638.69,292.72c5.37,0,9.68,4.31,9.68,9.67c0,5.36-4.31,9.67-9.68,9.67
		c-5.29,0-9.6-4.31-9.6-9.67C629.09,297.03,633.4,292.72,638.69,292.72z M587.59,332.02c13.46-20.33,52.76-20.33,87.91,0.07
		c1.44,0.83,2.8,1.66,4.16,2.57c0,5.37-2.34,11.41-6.58,17.23c-5.06-4.91-11.19-9.52-18.06-13.53
		c-26.39-15.34-55.71-16.62-68.87-3.85C586.61,333.68,587.06,332.85,587.59,332.02z M584.79,341.84c9.45-14.36,37.12-14.36,61.83,0
		c8.39,4.84,15.27,10.73,20.49,16.85c-3.48,3.33-7.56,6.42-12.09,9.07c-3.78-7.1-10.81-14.28-20.19-19.72
		c-18.67-10.88-39.53-10.88-46.64-0.08c-3.33,4.99-3.1,11.49,0,18.06c0.22,2.42,0.6,4.84,0.98,7.18
		C581.31,362.09,579.12,350.38,584.79,341.84z M591.44,409.17c-4.61,2.65-10.5,1.06-13.23-3.55c-2.64-4.61-1.06-10.58,3.56-13.23
		c4.61-2.64,10.5-1.05,13.23,3.55C597.64,400.56,596.05,406.45,591.44,409.17z M637.86,430.18c-24.34-1.44-44-35.52-43.92-76.1
		c0-1.66,0.07-3.25,0.15-4.91c4.69-2.72,11.11-3.63,18.22-2.87c-1.74,6.8-2.65,14.36-2.72,22.37
		c-0.07,30.53,13.46,56.52,31.14,61.51C639.75,430.26,638.84,430.26,637.86,430.18z M647.69,427.76
		c-17.09-0.98-30.92-25.01-30.84-53.58c0-9.67,1.59-18.59,4.38-26.15c4.61,1.36,9.3,3.33,13.91,5.89
		c-4.38,6.88-7.03,16.55-7.1,27.43c0,21.53,10.43,39.6,23.36,40.35c5.97,0.38,11.41-3.1,15.57-8.99c2.04-1.44,3.93-2.95,5.74-4.46
		C667.03,420.66,657.96,428.36,647.69,427.76z M653.73,413.71c-1.43,0.75-2.8,1.59-4.23,2.26c-4.69-2.64-8.77-7.71-11.64-14.28
		c6.73-1.97,13.76-4.92,20.71-8.85c26.46-15.19,42.26-39.9,37.72-57.74c0.53,0.83,0.98,1.66,1.44,2.49
		C708.69,359.45,688.96,393.45,653.73,413.71z M706.27,401.54c-2.72,4.61-8.62,6.2-13.23,3.55c-4.61-2.72-6.2-8.61-3.56-13.22
		c2.72-4.61,8.62-6.2,13.23-3.55C707.33,391.04,708.91,396.93,706.27,401.54z"/>
	<g>
		<path class="st9" d="M308.22,470.24c0-1.16,0.24-2.19,0.73-3.08c0.49-0.86,1.13-1.58,1.93-2.16c0.79-0.55,1.71-0.96,2.75-1.24
			c1.04-0.28,2.09-0.41,3.17-0.41c1.16,0,2.32,0.17,3.49,0.5c1.13,0.37,2.16,0.9,3.08,1.61v7.98h2.52v5.05h-12.62v5.51h-5.05V470.24
			z M318.32,468.82c-0.4-0.12-0.77-0.23-1.1-0.32c-0.37-0.06-0.69-0.09-0.96-0.09c-0.83,0-1.53,0.18-2.11,0.55
			c-0.58,0.37-0.87,0.87-0.87,1.51v2.98h5.05V468.82z"/>
		<path class="st9" d="M325.89,478.5c-0.4,0-0.73-0.14-1.01-0.41c-0.24-0.24-0.37-0.57-0.37-0.96v-2.29c0-0.4,0.12-0.73,0.37-1.01
			c0.28-0.24,0.61-0.37,1.01-0.37h11.24v-2.39c0-1.31-0.41-2.25-1.24-2.8c-0.86-0.52-1.85-0.78-2.98-0.78
			c-1.07,0-2.08,0.17-3.03,0.5c-0.09-0.18-0.21-0.49-0.37-0.92c-0.15-0.4-0.31-0.83-0.46-1.28c-0.18-0.46-0.35-0.89-0.5-1.29
			c-0.15-0.4-0.28-0.69-0.37-0.87l10.92-10.97l3.58,3.58l-6.65,6.7c1.8,0.34,3.29,1.15,4.45,2.43c1.13,1.32,1.7,3.21,1.7,5.69v2.39
			h2.52v5.05H325.89z"/>
		<path class="st9" d="M343.33,474.83c0-0.4,0.12-0.73,0.37-1.01c0.28-0.24,0.61-0.37,1.01-0.37h2.52v-19.27
			c0-0.25,0.09-0.46,0.28-0.64s0.4-0.28,0.64-0.28h3.21c0.24,0,0.46,0.09,0.64,0.28s0.28,0.4,0.28,0.64v19.27h2.52v5.05h-10.1
			c-0.4,0-0.73-0.14-1.01-0.41c-0.24-0.24-0.37-0.57-0.37-0.96V474.83z"/>
		<path class="st9" d="M353.42,474.83c0-0.4,0.12-0.73,0.37-1.01c0.28-0.24,0.61-0.37,1.01-0.37h10.65
			c-0.28-0.64-0.55-1.35-0.83-2.11c-0.28-0.76-0.6-1.48-0.96-2.16c-0.37-0.67-0.8-1.24-1.28-1.7c-0.52-0.46-1.15-0.69-1.88-0.69
			c-0.52,0-1.03,0.09-1.51,0.28s-0.96,0.44-1.42,0.78l-1.38-3.58c0.83-0.67,1.74-1.22,2.75-1.65c1.01-0.43,2-0.64,2.98-0.64
			c1.41,0,2.54,0.4,3.4,1.19c0.86,0.8,1.59,1.77,2.2,2.94c0.61,1.16,1.18,2.4,1.7,3.72c0.49,1.35,1.07,2.55,1.74,3.63h2.2v5.05
			H354.8c-0.4,0-0.73-0.14-1.01-0.41c-0.24-0.24-0.37-0.57-0.37-0.96V474.83z M362.6,483.32c0-0.58,0.24-1.07,0.73-1.47
			c0.49-0.4,1.08-0.6,1.79-0.6c0.7,0,1.3,0.2,1.79,0.6c0.49,0.4,0.73,0.89,0.73,1.47s-0.25,1.07-0.73,1.47
			c-0.49,0.4-1.09,0.6-1.79,0.6c-0.7,0-1.3-0.2-1.79-0.6C362.85,484.39,362.6,483.9,362.6,483.32z"/>
		<path class="st9" d="M381.97,448.4c-0.15-0.12-0.34-0.23-0.55-0.32c-0.25-0.06-0.47-0.09-0.69-0.09c-0.25,0-0.44,0.06-0.6,0.18
			c-0.18,0.12-0.28,0.34-0.28,0.64c0,0.25,0.11,0.47,0.32,0.69s0.54,0.32,0.96,0.32h1.74v2.06h-5.69v-2.06h1.1
			c-0.43-0.37-0.64-0.84-0.64-1.42c0-0.7,0.28-1.25,0.83-1.65c0.55-0.4,1.19-0.6,1.93-0.6c0.43,0,0.87,0.08,1.33,0.23
			c0.43,0.18,0.79,0.4,1.1,0.64L381.97,448.4z M381.65,453.26c0.24,0,0.46,0.09,0.64,0.28s0.28,0.4,0.28,0.64v23.4
			c0,0.25-0.09,0.46-0.28,0.64s-0.4,0.28-0.64,0.28h-3.21c-0.25,0-0.46-0.09-0.64-0.28s-0.28-0.4-0.28-0.64v-23.4
			c0-0.25,0.09-0.46,0.28-0.64s0.4-0.28,0.64-0.28H381.65z"/>
		<path class="st9" d="M414.46,473.45v5.05h-2.52v3.21c0,1.01-0.35,1.88-1.06,2.62c-0.73,0.7-1.61,1.06-2.62,1.06h-6.88
			c-1.13,0-2.2-0.21-3.21-0.64c-1.01-0.43-1.88-1.01-2.62-1.74c-0.77-0.76-1.36-1.65-1.79-2.66c-0.43-1.01-0.64-2.08-0.64-3.21
			v-7.66c0-0.25,0.09-0.46,0.28-0.64s0.4-0.28,0.64-0.28h3.21c0.25,0,0.46,0.09,0.64,0.28s0.28,0.4,0.28,0.64v7.66
			c0,1.04,0.35,1.84,1.06,2.39c0.7,0.55,1.53,0.83,2.48,0.83h5.19v-16.06c0-0.25,0.09-0.46,0.27-0.64s0.4-0.28,0.64-0.28h3.21
			c0.24,0,0.46,0.09,0.64,0.28s0.28,0.4,0.28,0.64v9.18H414.46z M400,458.08c0-0.58,0.24-1.07,0.73-1.47c0.49-0.4,1.08-0.6,1.79-0.6
			s1.3,0.2,1.79,0.6c0.49,0.4,0.73,0.89,0.73,1.47c0,0.58-0.25,1.07-0.73,1.47s-1.09,0.6-1.79,0.6s-1.3-0.2-1.79-0.6
			C400.25,459.15,400,458.66,400,458.08z"/>
		<path class="st9" d="M414.46,478.5c-0.4,0-0.73-0.14-1.01-0.41c-0.24-0.24-0.37-0.57-0.37-0.96v-2.29c0-0.4,0.12-0.73,0.37-1.01
			c0.28-0.24,0.61-0.37,1.01-0.37h2.52v-2.84c0-1.01,0.25-1.91,0.73-2.71c0.46-0.76,1.07-1.41,1.84-1.93
			c0.76-0.52,1.65-0.92,2.66-1.19c0.98-0.25,2-0.37,3.08-0.37c1.25,0,2.49,0.18,3.72,0.55c1.19,0.37,2.23,0.93,3.12,1.7v7.62
			c0,1.04-0.2,1.94-0.6,2.71c-0.43,0.77-0.98,1.39-1.65,1.88c-0.67,0.49-1.45,0.86-2.34,1.1c-0.89,0.24-1.81,0.37-2.75,0.37
			c-1.22,0-2.34-0.15-3.35-0.46c-1.04-0.34-2.05-0.8-3.03-1.38H414.46z M422.03,474.6c0.4,0.25,0.83,0.41,1.29,0.5
			c0.46,0.12,0.92,0.18,1.38,0.18c0.64,0,1.21-0.11,1.7-0.32c0.46-0.21,0.69-0.52,0.69-0.92v-4.18c-0.28-0.12-0.61-0.23-1.01-0.32
			c-0.4-0.06-0.81-0.09-1.24-0.09c-0.73,0-1.38,0.14-1.93,0.41c-0.58,0.31-0.87,0.78-0.87,1.42V474.6z"/>
		<path class="st9" d="M464.02,473.45v5.05h-2.52v3.21c0,1.01-0.35,1.88-1.06,2.62c-0.73,0.7-1.61,1.06-2.62,1.06h-6.88
			c-1.13,0-2.2-0.21-3.21-0.64c-1.01-0.43-1.88-1.01-2.62-1.74c-0.76-0.76-1.36-1.65-1.79-2.66c-0.43-1.01-0.64-2.08-0.64-3.21
			v-7.66c0-0.25,0.09-0.46,0.28-0.64s0.4-0.28,0.64-0.28h3.21c0.24,0,0.46,0.09,0.64,0.28s0.28,0.4,0.28,0.64v7.66
			c0,1.04,0.35,1.84,1.06,2.39c0.7,0.55,1.53,0.83,2.48,0.83h5.19v-16.06c0-0.25,0.09-0.46,0.28-0.64s0.4-0.28,0.64-0.28h3.21
			c0.25,0,0.46,0.09,0.64,0.28s0.28,0.4,0.28,0.64v9.18H464.02z M449.56,458.08c0-0.58,0.25-1.07,0.73-1.47
			c0.49-0.4,1.09-0.6,1.79-0.6c0.7,0,1.3,0.2,1.79,0.6c0.49,0.4,0.73,0.89,0.73,1.47c0,0.58-0.25,1.07-0.73,1.47
			c-0.49,0.4-1.09,0.6-1.79,0.6c-0.7,0-1.3-0.2-1.79-0.6S449.56,458.66,449.56,458.08z"/>
		<path class="st9" d="M462.64,474.83c0-0.4,0.12-0.73,0.37-1.01c0.28-0.24,0.61-0.37,1.01-0.37h10.65
			c-0.28-0.64-0.55-1.35-0.83-2.11c-0.28-0.76-0.6-1.48-0.96-2.16s-0.8-1.24-1.29-1.7c-0.52-0.46-1.15-0.69-1.88-0.69
			c-0.52,0-1.03,0.09-1.51,0.28c-0.49,0.18-0.96,0.44-1.42,0.78l-1.38-3.58c0.83-0.67,1.74-1.22,2.75-1.65
			c1.01-0.43,2-0.64,2.98-0.64c1.41,0,2.54,0.4,3.4,1.19c0.86,0.8,1.59,1.77,2.2,2.94c0.61,1.16,1.18,2.4,1.7,3.72
			c0.49,1.35,1.07,2.55,1.74,3.63h2.2v5.05h-18.36c-0.4,0-0.73-0.14-1.01-0.41c-0.24-0.24-0.37-0.57-0.37-0.96V474.83z"/>
		<path class="st9" d="M481,474.83c0-0.4,0.12-0.73,0.37-1.01c0.28-0.24,0.61-0.37,1.01-0.37h4.36v-9.18c0-0.25,0.09-0.46,0.28-0.64
			s0.4-0.28,0.64-0.28h3.21c0.24,0,0.46,0.09,0.64,0.28s0.28,0.4,0.28,0.64v10.55c0,1.01-0.35,1.87-1.05,2.57
			c-0.73,0.73-1.61,1.1-2.62,1.1h-5.74c-0.4,0-0.73-0.14-1.01-0.41c-0.24-0.24-0.37-0.57-0.37-0.96V474.83z M486.73,458.08
			c0-0.58,0.25-1.07,0.73-1.47c0.49-0.4,1.09-0.6,1.79-0.6c0.7,0,1.3,0.2,1.79,0.6c0.49,0.4,0.73,0.89,0.73,1.47
			c0,0.58-0.25,1.07-0.73,1.47c-0.49,0.4-1.09,0.6-1.79,0.6c-0.7,0-1.3-0.2-1.79-0.6S486.73,458.66,486.73,458.08z"/>
	</g>
	<g>
		<path class="st10" d="M348.99,503.02c-0.56,0-0.95-0.11-1.19-0.32c-0.24-0.21-0.35-0.47-0.35-0.8c0-0.25,0.06-0.52,0.19-0.83
			l0.85-2.14c0.11-0.29,0.3-0.52,0.55-0.71c0.25-0.18,0.54-0.28,0.88-0.28h2.62c0.08,0,0.15,0.03,0.22,0.09
			c0.06,0.06,0.09,0.13,0.09,0.21v3.08h0.85v1.7H348.99z M349.06,496.16c0-0.2,0.08-0.36,0.25-0.49c0.16-0.13,0.36-0.2,0.6-0.2
			s0.44,0.07,0.6,0.2c0.16,0.13,0.25,0.3,0.25,0.49s-0.08,0.36-0.25,0.49c-0.16,0.13-0.36,0.2-0.6,0.2s-0.44-0.07-0.6-0.2
			C349.15,496.52,349.06,496.36,349.06,496.16z M351.14,499.63H350l-0.66,1.7h1.8V499.63z M351.07,496.16c0-0.2,0.08-0.36,0.25-0.49
			c0.16-0.13,0.36-0.2,0.6-0.2c0.24,0,0.44,0.07,0.6,0.2c0.16,0.13,0.25,0.3,0.25,0.49s-0.08,0.36-0.25,0.49
			c-0.16,0.13-0.36,0.2-0.6,0.2c-0.24,0-0.44-0.07-0.6-0.2C351.15,496.52,351.07,496.36,351.07,496.16z"/>
		<path class="st10" d="M353.22,501.79c0-0.13,0.04-0.25,0.12-0.34c0.09-0.08,0.21-0.12,0.34-0.12h1.46v-3.08
			c0-0.08,0.03-0.15,0.09-0.21c0.06-0.06,0.13-0.09,0.22-0.09h1.08c0.08,0,0.15,0.03,0.22,0.09c0.06,0.06,0.09,0.13,0.09,0.21v3.08
			h1.46v1.7h-4.62c-0.13,0-0.25-0.05-0.34-0.14c-0.08-0.08-0.12-0.19-0.12-0.32V501.79z M353.69,504.64c0-0.2,0.08-0.36,0.25-0.49
			c0.16-0.13,0.36-0.2,0.6-0.2s0.44,0.07,0.6,0.2c0.16,0.13,0.25,0.3,0.25,0.49s-0.08,0.36-0.25,0.49c-0.16,0.13-0.36,0.2-0.6,0.2
			s-0.44-0.07-0.6-0.2C353.77,505,353.69,504.84,353.69,504.64z M355.69,504.64c0-0.2,0.08-0.36,0.25-0.49
			c0.16-0.13,0.36-0.2,0.6-0.2s0.44,0.07,0.6,0.2c0.16,0.13,0.25,0.3,0.25,0.49s-0.08,0.36-0.25,0.49c-0.16,0.13-0.36,0.2-0.6,0.2
			s-0.44-0.07-0.6-0.2C355.77,505,355.69,504.84,355.69,504.64z"/>
		<path class="st10" d="M357.85,501.79c0-0.13,0.04-0.25,0.12-0.34c0.09-0.08,0.21-0.12,0.34-0.12h3.08v1.7h-3.08
			c-0.13,0-0.25-0.05-0.34-0.14c-0.08-0.08-0.12-0.19-0.12-0.32V501.79z"/>
		<path class="st10" d="M360.93,501.79c0-0.13,0.04-0.25,0.12-0.34c0.09-0.08,0.21-0.12,0.34-0.12h1.46v-3.08
			c0-0.08,0.03-0.15,0.09-0.21c0.06-0.06,0.13-0.09,0.22-0.09h1.08c0.08,0,0.15,0.03,0.22,0.09c0.06,0.06,0.09,0.13,0.09,0.21v3.54
			c0,0.34-0.12,0.63-0.35,0.86c-0.25,0.25-0.54,0.37-0.88,0.37h-1.93c-0.13,0-0.25-0.05-0.34-0.14c-0.08-0.08-0.12-0.19-0.12-0.32
			V501.79z M362.1,504.64c0-0.2,0.08-0.36,0.25-0.49c0.16-0.13,0.36-0.2,0.6-0.2s0.44,0.07,0.6,0.2c0.16,0.13,0.25,0.3,0.25,0.49
			s-0.08,0.36-0.25,0.49c-0.16,0.13-0.36,0.2-0.6,0.2s-0.44-0.07-0.6-0.2C362.18,505,362.1,504.84,362.1,504.64z"/>
		<path class="st10" d="M367.63,494.55c0.08,0,0.15,0.03,0.22,0.09c0.06,0.06,0.09,0.13,0.09,0.22v6.47h0.85v1.7h-2.23
			c-0.08,0-0.15-0.03-0.22-0.09c-0.06-0.06-0.09-0.13-0.09-0.22v-7.86c0-0.08,0.03-0.15,0.09-0.22c0.06-0.06,0.13-0.09,0.22-0.09
			H367.63z"/>
		<path class="st10" d="M368.33,501.79c0-0.13,0.04-0.25,0.12-0.34c0.09-0.08,0.21-0.12,0.34-0.12h1.46v-3.08
			c0-0.08,0.03-0.15,0.09-0.21c0.06-0.06,0.13-0.09,0.22-0.09h1.08c0.08,0,0.15,0.03,0.22,0.09c0.06,0.06,0.09,0.13,0.09,0.21v3.08
			h1.46v1.7h-4.62c-0.13,0-0.25-0.05-0.34-0.14c-0.08-0.08-0.12-0.19-0.12-0.32V501.79z M370.25,504.64c0-0.2,0.08-0.36,0.25-0.49
			c0.16-0.13,0.36-0.2,0.6-0.2c0.24,0,0.44,0.07,0.6,0.2c0.16,0.13,0.25,0.3,0.25,0.49s-0.08,0.36-0.25,0.49
			c-0.16,0.13-0.36,0.2-0.6,0.2c-0.24,0-0.44-0.07-0.6-0.2C370.34,505,370.25,504.84,370.25,504.64z"/>
		<path class="st10" d="M374.88,498.24c0-0.08,0.03-0.15,0.09-0.21c0.06-0.06,0.13-0.09,0.22-0.09h1.08c0.08,0,0.15,0.03,0.22,0.09
			c0.06,0.06,0.09,0.13,0.09,0.21v3.08h1.39v-3.08c0-0.08,0.03-0.15,0.09-0.21c0.06-0.06,0.13-0.09,0.22-0.09h1.08
			c0.08,0,0.15,0.03,0.22,0.09c0.06,0.06,0.09,0.13,0.09,0.21v3.08h1.39v-3.08c0-0.08,0.03-0.15,0.09-0.21
			c0.06-0.06,0.13-0.09,0.22-0.09h1.08c0.08,0,0.15,0.03,0.22,0.09c0.06,0.06,0.09,0.13,0.09,0.21v3.54c0,0.34-0.12,0.63-0.35,0.86
			c-0.25,0.25-0.54,0.37-0.88,0.37h-8.09c-0.13,0-0.25-0.05-0.34-0.14c-0.08-0.08-0.12-0.19-0.12-0.32v-0.77
			c0-0.13,0.04-0.25,0.12-0.34c0.09-0.08,0.21-0.12,0.34-0.12h1.46V498.24z M376.96,496.47c0-0.2,0.08-0.36,0.25-0.49
			c0.16-0.13,0.36-0.2,0.6-0.2s0.44,0.07,0.6,0.2c0.16,0.13,0.25,0.3,0.25,0.49s-0.08,0.36-0.25,0.49c-0.16,0.13-0.36,0.2-0.6,0.2
			s-0.44-0.07-0.6-0.2C377.04,496.83,376.96,496.67,376.96,496.47z M377.96,494.93c0-0.19,0.08-0.36,0.25-0.49
			c0.16-0.13,0.36-0.2,0.6-0.2c0.24,0,0.44,0.07,0.6,0.2c0.16,0.13,0.25,0.3,0.25,0.49c0,0.2-0.08,0.36-0.25,0.49
			c-0.16,0.13-0.37,0.2-0.6,0.2c-0.24,0-0.44-0.07-0.6-0.2C378.04,495.29,377.96,495.13,377.96,494.93z M378.96,496.47
			c0-0.2,0.08-0.36,0.25-0.49c0.16-0.13,0.36-0.2,0.6-0.2s0.44,0.07,0.6,0.2c0.16,0.13,0.25,0.3,0.25,0.49s-0.08,0.36-0.25,0.49
			c-0.16,0.13-0.36,0.2-0.6,0.2s-0.44-0.07-0.6-0.2C379.04,496.83,378.96,496.67,378.96,496.47z"/>
		<path class="st10" d="M387.82,503.02c-0.56,0-0.95-0.11-1.19-0.32c-0.24-0.21-0.35-0.47-0.35-0.8c0-0.25,0.06-0.52,0.19-0.83
			l0.85-2.14c0.11-0.29,0.3-0.52,0.55-0.71c0.25-0.18,0.54-0.28,0.88-0.28h2.62c0.08,0,0.15,0.03,0.22,0.09
			c0.06,0.06,0.09,0.13,0.09,0.21v3.08h0.85v1.7H387.82z M387.9,496.16c0-0.2,0.08-0.36,0.25-0.49c0.16-0.13,0.36-0.2,0.6-0.2
			s0.44,0.07,0.6,0.2c0.16,0.13,0.25,0.3,0.25,0.49s-0.08,0.36-0.25,0.49c-0.16,0.13-0.36,0.2-0.6,0.2s-0.44-0.07-0.6-0.2
			C387.98,496.52,387.9,496.36,387.9,496.16z M389.98,499.63h-1.14l-0.66,1.7h1.8V499.63z M389.91,496.16c0-0.2,0.08-0.36,0.25-0.49
			c0.16-0.13,0.36-0.2,0.6-0.2c0.24,0,0.44,0.07,0.6,0.2c0.16,0.13,0.25,0.3,0.25,0.49s-0.08,0.36-0.25,0.49
			c-0.16,0.13-0.36,0.2-0.6,0.2c-0.24,0-0.44-0.07-0.6-0.2C389.99,496.52,389.91,496.36,389.91,496.16z"/>
		<path class="st10" d="M392.06,501.79c0-0.13,0.04-0.25,0.12-0.34c0.09-0.08,0.21-0.12,0.34-0.12h3.08v1.7h-3.08
			c-0.13,0-0.25-0.05-0.34-0.14c-0.08-0.08-0.12-0.19-0.12-0.32V501.79z"/>
		<path class="st10" d="M395.14,501.79c0-0.13,0.04-0.25,0.12-0.34c0.09-0.08,0.21-0.12,0.34-0.12h2.23v-3.08
			c0-0.08,0.03-0.15,0.09-0.21c0.06-0.06,0.13-0.09,0.22-0.09h1.08c0.08,0,0.15,0.03,0.22,0.09c0.06,0.06,0.09,0.13,0.09,0.21v3.54
			c0,0.34-0.12,0.63-0.35,0.86c-0.25,0.25-0.54,0.37-0.88,0.37h-2.7c-0.13,0-0.25-0.05-0.34-0.14c-0.08-0.08-0.12-0.19-0.12-0.32
			V501.79z M395.3,505.1c0-0.2,0.08-0.36,0.25-0.49c0.16-0.13,0.36-0.2,0.6-0.2c0.24,0,0.44,0.07,0.6,0.2
			c0.16,0.13,0.25,0.3,0.25,0.49c0,0.19-0.08,0.36-0.25,0.49c-0.16,0.13-0.36,0.2-0.6,0.2c-0.24,0-0.44-0.07-0.6-0.2
			C395.38,505.46,395.3,505.3,395.3,505.1z M397.3,505.1c0-0.2,0.08-0.36,0.25-0.49c0.16-0.13,0.36-0.2,0.6-0.2s0.44,0.07,0.6,0.2
			c0.16,0.13,0.25,0.3,0.25,0.49c0,0.19-0.08,0.36-0.25,0.49c-0.16,0.13-0.36,0.2-0.6,0.2s-0.44-0.07-0.6-0.2
			C397.38,505.46,397.3,505.3,397.3,505.1z"/>
		<path class="st10" d="M402.93,497.94c0.08,0,0.15,0.03,0.22,0.09c0.06,0.06,0.09,0.13,0.09,0.21v3.08h0.85v1.7h-0.85
			c0,0.46-0.06,0.86-0.18,1.2c-0.12,0.34-0.29,0.62-0.51,0.83s-0.47,0.38-0.76,0.48c-0.3,0.1-0.62,0.15-0.96,0.15
			c-0.37,0-0.74-0.05-1.11-0.15l0.37-1.46c0.15,0.03,0.3,0.05,0.45,0.05c0.3,0,0.54-0.08,0.72-0.25c0.19-0.17,0.28-0.46,0.28-0.85
			v-4.78c0-0.08,0.03-0.15,0.09-0.21c0.06-0.06,0.13-0.09,0.22-0.09H402.93z"/>
		<path class="st10" d="M403.62,501.79c0-0.13,0.04-0.25,0.12-0.34c0.09-0.08,0.21-0.12,0.34-0.12h1.46v-3.08
			c0-0.08,0.03-0.15,0.09-0.21c0.06-0.06,0.13-0.09,0.22-0.09h1.08c0.08,0,0.15,0.03,0.22,0.09c0.06,0.06,0.09,0.13,0.09,0.21v3.08
			h1.46v1.7h-4.62c-0.13,0-0.25-0.05-0.34-0.14c-0.08-0.08-0.12-0.19-0.12-0.32V501.79z M404.08,504.64c0-0.2,0.08-0.36,0.25-0.49
			c0.16-0.13,0.36-0.2,0.6-0.2s0.44,0.07,0.6,0.2c0.16,0.13,0.25,0.3,0.25,0.49s-0.08,0.36-0.25,0.49c-0.16,0.13-0.36,0.2-0.6,0.2
			s-0.44-0.07-0.6-0.2C404.17,505,404.08,504.84,404.08,504.64z M406.09,504.64c0-0.2,0.08-0.36,0.25-0.49
			c0.16-0.13,0.36-0.2,0.6-0.2s0.44,0.07,0.6,0.2c0.16,0.13,0.25,0.3,0.25,0.49s-0.08,0.36-0.25,0.49c-0.16,0.13-0.36,0.2-0.6,0.2
			s-0.44-0.07-0.6-0.2C406.17,505,406.09,504.84,406.09,504.64z"/>
		<path class="st10" d="M408.25,501.79c0-0.13,0.04-0.25,0.12-0.34c0.09-0.08,0.21-0.12,0.34-0.12h3.58
			c-0.09-0.22-0.19-0.45-0.28-0.71c-0.09-0.26-0.2-0.5-0.32-0.72c-0.12-0.23-0.27-0.42-0.43-0.57c-0.17-0.15-0.39-0.23-0.63-0.23
			c-0.17,0-0.34,0.03-0.51,0.09c-0.16,0.06-0.32,0.15-0.48,0.26l-0.46-1.2c0.28-0.23,0.59-0.41,0.92-0.55
			c0.34-0.14,0.67-0.22,1-0.22c0.47,0,0.85,0.13,1.14,0.4c0.29,0.27,0.53,0.6,0.74,0.99s0.4,0.81,0.57,1.25
			c0.16,0.45,0.36,0.86,0.59,1.22h0.74v1.7h-6.17c-0.13,0-0.25-0.05-0.34-0.14c-0.08-0.08-0.12-0.19-0.12-0.32V501.79z
			 M410.25,496.01c0-0.2,0.08-0.36,0.25-0.49c0.16-0.13,0.36-0.2,0.6-0.2c0.24,0,0.44,0.07,0.6,0.2c0.16,0.13,0.25,0.3,0.25,0.49
			s-0.08,0.36-0.25,0.49c-0.16,0.13-0.37,0.2-0.6,0.2c-0.24,0-0.44-0.07-0.6-0.2C410.33,496.37,410.25,496.21,410.25,496.01z"/>
		<path class="st10" d="M419.73,503.02c-0.56,0-0.95-0.11-1.19-0.32c-0.24-0.21-0.35-0.47-0.35-0.8c0-0.25,0.06-0.52,0.19-0.83
			l0.85-2.14c0.11-0.29,0.3-0.52,0.55-0.71c0.25-0.18,0.54-0.28,0.88-0.28h2.62c0.08,0,0.15,0.03,0.22,0.09
			c0.06,0.06,0.09,0.13,0.09,0.21v3.08h0.85v1.7H419.73z M419.8,496.16c0-0.2,0.08-0.36,0.25-0.49c0.16-0.13,0.36-0.2,0.6-0.2
			s0.44,0.07,0.6,0.2c0.16,0.13,0.25,0.3,0.25,0.49s-0.08,0.36-0.25,0.49c-0.16,0.13-0.36,0.2-0.6,0.2s-0.44-0.07-0.6-0.2
			C419.89,496.52,419.8,496.36,419.8,496.16z M421.89,499.63h-1.14l-0.66,1.7h1.8V499.63z M421.81,496.16c0-0.2,0.08-0.36,0.25-0.49
			c0.16-0.13,0.36-0.2,0.6-0.2c0.24,0,0.44,0.07,0.6,0.2c0.16,0.13,0.25,0.3,0.25,0.49s-0.08,0.36-0.25,0.49
			c-0.16,0.13-0.36,0.2-0.6,0.2c-0.24,0-0.44-0.07-0.6-0.2C421.89,496.52,421.81,496.36,421.81,496.16z"/>
		<path class="st10" d="M423.97,501.79c0-0.13,0.04-0.25,0.12-0.34c0.09-0.08,0.21-0.12,0.34-0.12h1.46v-3.08
			c0-0.08,0.03-0.15,0.09-0.21c0.06-0.06,0.13-0.09,0.22-0.09h1.08c0.08,0,0.15,0.03,0.22,0.09c0.06,0.06,0.09,0.13,0.09,0.21v3.08
			h1.46v1.7h-4.62c-0.13,0-0.25-0.05-0.34-0.14c-0.08-0.08-0.12-0.19-0.12-0.32V501.79z M424.43,504.64c0-0.2,0.08-0.36,0.25-0.49
			c0.16-0.13,0.36-0.2,0.6-0.2s0.44,0.07,0.6,0.2c0.16,0.13,0.25,0.3,0.25,0.49s-0.08,0.36-0.25,0.49c-0.16,0.13-0.36,0.2-0.6,0.2
			s-0.44-0.07-0.6-0.2C424.51,505,424.43,504.84,424.43,504.64z M426.43,504.64c0-0.2,0.08-0.36,0.25-0.49
			c0.16-0.13,0.36-0.2,0.6-0.2s0.44,0.07,0.6,0.2c0.16,0.13,0.25,0.3,0.25,0.49s-0.08,0.36-0.25,0.49c-0.16,0.13-0.36,0.2-0.6,0.2
			s-0.44-0.07-0.6-0.2C426.51,505,426.43,504.84,426.43,504.64z"/>
		<path class="st10" d="M428.59,501.79c0-0.13,0.04-0.25,0.12-0.34c0.09-0.08,0.21-0.12,0.34-0.12h3.08v1.7h-3.08
			c-0.13,0-0.25-0.05-0.34-0.14c-0.08-0.08-0.12-0.19-0.12-0.32V501.79z"/>
		<path class="st10" d="M431.67,501.79c0-0.13,0.04-0.25,0.12-0.34c0.09-0.08,0.21-0.12,0.34-0.12h1.74l-0.72-1.26
			c-0.05-0.1-0.09-0.22-0.12-0.35c-0.03-0.12-0.05-0.25-0.05-0.37c0-0.17,0.03-0.35,0.08-0.52c0.05-0.16,0.13-0.31,0.23-0.45
			c0.1-0.12,0.23-0.23,0.39-0.31c0.15-0.08,0.33-0.12,0.54-0.12h3.54c0.21,0,0.39,0.04,0.54,0.12c0.15,0.08,0.28,0.18,0.39,0.31
			c0.1,0.13,0.18,0.28,0.23,0.45c0.05,0.17,0.08,0.35,0.08,0.52c0,0.12-0.01,0.25-0.03,0.37c-0.03,0.12-0.08,0.24-0.14,0.35
			l-0.74,1.26h1.76v1.7h-7.71c-0.13,0-0.25-0.05-0.34-0.14c-0.08-0.08-0.12-0.19-0.12-0.32V501.79z M434.83,499.63l0.91,1.7h0.48
			l0.91-1.7H434.83z"/>
		<path class="st10" d="M439.38,501.79c0-0.13,0.04-0.25,0.12-0.34c0.09-0.08,0.21-0.12,0.34-0.12h0.85v-0.8
			c0-0.4,0.08-0.74,0.23-1.03c0.14-0.28,0.34-0.51,0.59-0.69c0.24-0.17,0.51-0.3,0.82-0.39c0.3-0.08,0.6-0.12,0.91-0.12
			c0.31,0,0.62,0.04,0.92,0.12c0.31,0.09,0.58,0.23,0.82,0.42c0.24,0.19,0.43,0.42,0.59,0.71c0.14,0.29,0.22,0.63,0.22,1.03v0.75
			h0.85v1.7h-1.28c-0.24,0.27-0.54,0.46-0.92,0.59c-0.38,0.12-0.77,0.18-1.17,0.18c-0.42,0-0.82-0.06-1.2-0.18
			c-0.38-0.13-0.7-0.33-0.96-0.59h-1.25c-0.13,0-0.25-0.05-0.34-0.14c-0.08-0.08-0.12-0.19-0.12-0.32V501.79z M442.38,501.64
			c0,0.15,0.09,0.27,0.26,0.34c0.17,0.08,0.37,0.12,0.59,0.12c0.21,0,0.4-0.04,0.59-0.12c0.17-0.07,0.26-0.19,0.26-0.34v-0.99
			c0-0.24-0.09-0.41-0.26-0.51c-0.19-0.1-0.38-0.15-0.59-0.15c-0.22,0-0.41,0.05-0.59,0.15c-0.17,0.1-0.26,0.27-0.26,0.51V501.64z"
			/>
		<path class="st10" d="M446.16,501.79c0-0.13,0.04-0.25,0.12-0.34c0.09-0.08,0.21-0.12,0.34-0.12h3.58
			c-0.09-0.22-0.19-0.45-0.28-0.71c-0.09-0.26-0.2-0.5-0.32-0.72c-0.12-0.23-0.27-0.42-0.43-0.57c-0.17-0.15-0.39-0.23-0.63-0.23
			c-0.17,0-0.34,0.03-0.51,0.09c-0.16,0.06-0.32,0.15-0.48,0.26l-0.46-1.2c0.28-0.23,0.59-0.41,0.92-0.55
			c0.34-0.14,0.67-0.22,1-0.22c0.47,0,0.85,0.13,1.14,0.4c0.29,0.27,0.53,0.6,0.74,0.99s0.4,0.81,0.57,1.25
			c0.16,0.45,0.36,0.86,0.59,1.22h0.74v1.7h-6.17c-0.13,0-0.25-0.05-0.34-0.14c-0.08-0.08-0.12-0.19-0.12-0.32V501.79z
			 M449.24,504.64c0-0.2,0.08-0.36,0.25-0.49c0.16-0.13,0.36-0.2,0.6-0.2s0.44,0.07,0.6,0.2c0.16,0.13,0.25,0.3,0.25,0.49
			s-0.08,0.36-0.25,0.49c-0.16,0.13-0.36,0.2-0.6,0.2s-0.44-0.07-0.6-0.2C449.32,505,449.24,504.84,449.24,504.64z"/>
	</g>
	<linearGradient id="SVGID_1_" gradientUnits="userSpaceOnUse" x1="331.3316" y1="361.4779" x2="468.6687" y2="361.4779">
		<stop  offset="0" style="stop-color:#F18826"/>
		<stop  offset="0.5531" style="stop-color:#FAB522"/>
		<stop  offset="1" style="stop-color:#F49325"/>
	</linearGradient>
	<path class="st0" d="M331.33,287.8v147.35h137.34V287.8H331.33z M448.46,330.28c7.71,15.34-6.12,39.37-30.99,53.58
		c-8.32,4.76-16.86,7.86-24.8,9.22c-1.13-4.61-1.81-9.67-1.81-14.96c8.09,0.3,17.77-2.19,27.21-7.56
		c18.75-10.73,29.18-28.87,23.36-40.43c-2.72-5.36-8.38-8.39-15.64-8.99c-2.2-0.98-4.46-1.89-6.73-2.72
		C432.65,317.13,443.84,321.13,448.46,330.28z M396.45,292.72c5.37,0,9.68,4.31,9.68,9.67c0,5.36-4.31,9.67-9.68,9.67
		c-5.29,0-9.6-4.31-9.6-9.67C386.85,297.03,391.16,292.72,396.45,292.72z M345.35,332.02c13.46-20.33,52.76-20.33,87.91,0.07
		c1.44,0.83,2.8,1.66,4.16,2.57c0,5.37-2.34,11.41-6.58,17.23c-5.06-4.91-11.19-9.52-18.06-13.53
		c-26.39-15.34-55.71-16.62-68.87-3.85C344.36,333.68,344.82,332.85,345.35,332.02z M342.55,341.84c9.45-14.36,37.12-14.36,61.83,0
		c8.39,4.84,15.27,10.73,20.49,16.85c-3.48,3.33-7.56,6.42-12.09,9.07c-3.78-7.1-10.81-14.28-20.19-19.72
		c-18.67-10.88-39.53-10.88-46.64-0.08c-3.33,4.99-3.1,11.49,0,18.06c0.22,2.42,0.6,4.84,0.98,7.18
		C339.07,362.09,336.88,350.38,342.55,341.84z M349.2,409.17c-4.61,2.65-10.5,1.06-13.23-3.55c-2.64-4.61-1.06-10.58,3.56-13.23
		c4.61-2.64,10.5-1.05,13.23,3.55C355.4,400.56,353.81,406.45,349.2,409.17z M395.62,430.18c-24.34-1.44-44-35.52-43.92-76.1
		c0-1.66,0.07-3.25,0.15-4.91c4.69-2.72,11.11-3.63,18.22-2.87c-1.74,6.8-2.65,14.36-2.72,22.37
		c-0.07,30.53,13.46,56.52,31.14,61.51C397.5,430.26,396.6,430.26,395.62,430.18z M405.44,427.76
		c-17.09-0.98-30.92-25.01-30.84-53.58c0-9.67,1.59-18.59,4.38-26.15c4.61,1.36,9.3,3.33,13.91,5.89
		c-4.38,6.88-7.03,16.55-7.1,27.43c0,21.53,10.43,39.6,23.36,40.35c5.97,0.38,11.41-3.1,15.57-8.99c2.04-1.44,3.93-2.95,5.74-4.46
		C424.79,420.66,415.72,428.36,405.44,427.76z M411.49,413.71c-1.43,0.75-2.8,1.59-4.23,2.26c-4.69-2.64-8.77-7.71-11.64-14.28
		c6.73-1.97,13.76-4.92,20.71-8.85c26.46-15.19,42.26-39.9,37.72-57.74c0.53,0.83,0.98,1.66,1.44,2.49
		C466.45,359.45,446.72,393.45,411.49,413.71z M464.02,401.54c-2.72,4.61-8.62,6.2-13.23,3.55c-4.61-2.72-6.2-8.61-3.56-13.22
		c2.72-4.61,8.62-6.2,13.23-3.55C465.08,391.04,466.67,396.93,464.02,401.54z"/>
	<g>
		<path class="st9" d="M65.98,470.24c0-1.16,0.24-2.19,0.73-3.08c0.49-0.86,1.13-1.58,1.93-2.16c0.79-0.55,1.71-0.96,2.75-1.24
			c1.04-0.28,2.1-0.41,3.17-0.41c1.16,0,2.32,0.17,3.49,0.5c1.13,0.37,2.16,0.9,3.07,1.61v7.98h2.52v5.05H71.03v5.51h-5.05V470.24z
			 M76.08,468.82c-0.4-0.12-0.77-0.23-1.1-0.32c-0.37-0.06-0.69-0.09-0.96-0.09c-0.83,0-1.53,0.18-2.11,0.55
			c-0.58,0.37-0.87,0.87-0.87,1.51v2.98h5.05V468.82z"/>
		<path class="st9" d="M83.65,478.5c-0.4,0-0.73-0.14-1.01-0.41c-0.24-0.24-0.37-0.57-0.37-0.96v-2.29c0-0.4,0.12-0.73,0.37-1.01
			c0.28-0.24,0.61-0.37,1.01-0.37h11.24v-2.39c0-1.31-0.41-2.25-1.24-2.8c-0.86-0.52-1.85-0.78-2.98-0.78
			c-1.07,0-2.08,0.17-3.03,0.5c-0.09-0.18-0.21-0.49-0.37-0.92c-0.15-0.4-0.31-0.83-0.46-1.28c-0.18-0.46-0.35-0.89-0.5-1.29
			c-0.15-0.4-0.28-0.69-0.37-0.87l10.92-10.97l3.58,3.58l-6.65,6.7c1.8,0.34,3.29,1.15,4.45,2.43c1.13,1.32,1.7,3.21,1.7,5.69v2.39
			h2.52v5.05H83.65z"/>
		<path class="st9" d="M101.09,474.83c0-0.4,0.12-0.73,0.37-1.01c0.28-0.24,0.61-0.37,1.01-0.37h2.52v-19.27
			c0-0.25,0.09-0.46,0.28-0.64s0.4-0.28,0.64-0.28h3.21c0.24,0,0.46,0.09,0.64,0.28s0.28,0.4,0.28,0.64v19.27h2.52v5.05h-10.1
			c-0.4,0-0.73-0.14-1.01-0.41c-0.24-0.24-0.37-0.57-0.37-0.96V474.83z"/>
		<path class="st9" d="M111.18,474.83c0-0.4,0.12-0.73,0.37-1.01c0.28-0.24,0.61-0.37,1.01-0.37h10.65
			c-0.28-0.64-0.55-1.35-0.83-2.11c-0.28-0.76-0.6-1.48-0.96-2.16c-0.37-0.67-0.8-1.24-1.28-1.7c-0.52-0.46-1.15-0.69-1.88-0.69
			c-0.52,0-1.03,0.09-1.51,0.28c-0.49,0.18-0.96,0.44-1.42,0.78l-1.38-3.58c0.83-0.67,1.74-1.22,2.75-1.65
			c1.01-0.43,2-0.64,2.98-0.64c1.41,0,2.54,0.4,3.4,1.19c0.86,0.8,1.59,1.77,2.2,2.94c0.61,1.16,1.18,2.4,1.7,3.72
			c0.49,1.35,1.07,2.55,1.74,3.63h2.2v5.05h-18.36c-0.4,0-0.73-0.14-1.01-0.41c-0.24-0.24-0.37-0.57-0.37-0.96V474.83z
			 M120.36,483.32c0-0.58,0.24-1.07,0.73-1.47c0.49-0.4,1.09-0.6,1.79-0.6c0.7,0,1.3,0.2,1.79,0.6c0.49,0.4,0.73,0.89,0.73,1.47
			s-0.25,1.07-0.73,1.47c-0.49,0.4-1.09,0.6-1.79,0.6c-0.7,0-1.3-0.2-1.79-0.6C120.6,484.39,120.36,483.9,120.36,483.32z"/>
		<path class="st9" d="M139.73,448.4c-0.15-0.12-0.34-0.23-0.55-0.32c-0.25-0.06-0.47-0.09-0.69-0.09c-0.25,0-0.44,0.06-0.6,0.18
			c-0.18,0.12-0.28,0.34-0.28,0.64c0,0.25,0.11,0.47,0.32,0.69c0.21,0.21,0.53,0.32,0.96,0.32h1.74v2.06h-5.69v-2.06h1.1
			c-0.43-0.37-0.64-0.84-0.64-1.42c0-0.7,0.28-1.25,0.83-1.65c0.55-0.4,1.19-0.6,1.93-0.6c0.43,0,0.87,0.08,1.33,0.23
			c0.43,0.18,0.8,0.4,1.1,0.64L139.73,448.4z M139.4,453.26c0.24,0,0.46,0.09,0.64,0.28s0.28,0.4,0.28,0.64v23.4
			c0,0.25-0.09,0.46-0.28,0.64s-0.4,0.28-0.64,0.28h-3.21c-0.25,0-0.46-0.09-0.64-0.28s-0.28-0.4-0.28-0.64v-23.4
			c0-0.25,0.09-0.46,0.28-0.64s0.4-0.28,0.64-0.28H139.4z"/>
		<path class="st9" d="M172.22,473.45v5.05h-2.52v3.21c0,1.01-0.35,1.88-1.06,2.62c-0.73,0.7-1.61,1.06-2.62,1.06h-6.88
			c-1.13,0-2.2-0.21-3.21-0.64c-1.01-0.43-1.88-1.01-2.62-1.74c-0.77-0.76-1.36-1.65-1.79-2.66c-0.43-1.01-0.64-2.08-0.64-3.21
			v-7.66c0-0.25,0.09-0.46,0.28-0.64s0.4-0.28,0.64-0.28h3.21c0.24,0,0.46,0.09,0.64,0.28s0.28,0.4,0.28,0.64v7.66
			c0,1.04,0.35,1.84,1.06,2.39c0.7,0.55,1.53,0.83,2.48,0.83h5.19v-16.06c0-0.25,0.09-0.46,0.27-0.64s0.4-0.28,0.64-0.28h3.21
			c0.24,0,0.46,0.09,0.64,0.28s0.28,0.4,0.28,0.64v9.18H172.22z M157.76,458.08c0-0.58,0.24-1.07,0.73-1.47
			c0.49-0.4,1.09-0.6,1.79-0.6c0.7,0,1.3,0.2,1.79,0.6c0.49,0.4,0.73,0.89,0.73,1.47c0,0.58-0.25,1.07-0.73,1.47
			c-0.49,0.4-1.09,0.6-1.79,0.6c-0.7,0-1.3-0.2-1.79-0.6C158,459.15,157.76,458.66,157.76,458.08z"/>
		<path class="st9" d="M172.21,478.5c-0.4,0-0.73-0.14-1.01-0.41c-0.24-0.24-0.37-0.57-0.37-0.96v-2.29c0-0.4,0.12-0.73,0.37-1.01
			c0.28-0.24,0.61-0.37,1.01-0.37h2.52v-2.84c0-1.01,0.24-1.91,0.73-2.71c0.46-0.76,1.07-1.41,1.84-1.93
			c0.76-0.52,1.65-0.92,2.66-1.19c0.98-0.25,2-0.37,3.07-0.37c1.25,0,2.49,0.18,3.72,0.55c1.19,0.37,2.23,0.93,3.12,1.7v7.62
			c0,1.04-0.2,1.94-0.6,2.71c-0.43,0.77-0.98,1.39-1.65,1.88c-0.67,0.49-1.45,0.86-2.34,1.1c-0.89,0.24-1.81,0.37-2.75,0.37
			c-1.22,0-2.34-0.15-3.35-0.46c-1.04-0.34-2.05-0.8-3.03-1.38H172.21z M179.79,474.6c0.4,0.25,0.83,0.41,1.28,0.5
			c0.46,0.12,0.92,0.18,1.38,0.18c0.64,0,1.21-0.11,1.7-0.32c0.46-0.21,0.69-0.52,0.69-0.92v-4.18c-0.28-0.12-0.61-0.23-1.01-0.32
			c-0.4-0.06-0.81-0.09-1.24-0.09c-0.73,0-1.38,0.14-1.93,0.41c-0.58,0.31-0.87,0.78-0.87,1.42V474.6z"/>
		<path class="st9" d="M221.78,473.45v5.05h-2.52v3.21c0,1.01-0.35,1.88-1.06,2.62c-0.73,0.7-1.61,1.06-2.62,1.06h-6.88
			c-1.13,0-2.2-0.21-3.21-0.64c-1.01-0.43-1.88-1.01-2.62-1.74c-0.77-0.76-1.36-1.65-1.79-2.66c-0.43-1.01-0.64-2.08-0.64-3.21
			v-7.66c0-0.25,0.09-0.46,0.28-0.64s0.4-0.28,0.64-0.28h3.21c0.24,0,0.46,0.09,0.64,0.28s0.28,0.4,0.28,0.64v7.66
			c0,1.04,0.35,1.84,1.06,2.39c0.7,0.55,1.53,0.83,2.48,0.83h5.19v-16.06c0-0.25,0.09-0.46,0.27-0.64s0.4-0.28,0.64-0.28h3.21
			c0.24,0,0.46,0.09,0.64,0.28s0.28,0.4,0.28,0.64v9.18H221.78z M207.32,458.08c0-0.58,0.24-1.07,0.73-1.47
			c0.49-0.4,1.09-0.6,1.79-0.6c0.7,0,1.3,0.2,1.79,0.6c0.49,0.4,0.73,0.89,0.73,1.47c0,0.58-0.25,1.07-0.73,1.47
			c-0.49,0.4-1.09,0.6-1.79,0.6c-0.7,0-1.3-0.2-1.79-0.6C207.56,459.15,207.32,458.66,207.32,458.08z"/>
		<path class="st9" d="M220.4,474.83c0-0.4,0.12-0.73,0.37-1.01c0.28-0.24,0.61-0.37,1.01-0.37h10.65
			c-0.28-0.64-0.55-1.35-0.83-2.11c-0.28-0.76-0.6-1.48-0.96-2.16c-0.37-0.67-0.8-1.24-1.28-1.7c-0.52-0.46-1.15-0.69-1.88-0.69
			c-0.52,0-1.03,0.09-1.51,0.28c-0.49,0.18-0.96,0.44-1.42,0.78l-1.38-3.58c0.83-0.67,1.74-1.22,2.75-1.65
			c1.01-0.43,2-0.64,2.98-0.64c1.41,0,2.54,0.4,3.4,1.19c0.86,0.8,1.59,1.77,2.2,2.94c0.61,1.16,1.18,2.4,1.7,3.72
			c0.49,1.35,1.07,2.55,1.74,3.63h2.2v5.05h-18.36c-0.4,0-0.73-0.14-1.01-0.41c-0.24-0.24-0.37-0.57-0.37-0.96V474.83z"/>
		<path class="st9" d="M238.75,474.83c0-0.4,0.12-0.73,0.37-1.01c0.28-0.24,0.61-0.37,1.01-0.37h4.36v-9.18
			c0-0.25,0.09-0.46,0.28-0.64s0.4-0.28,0.64-0.28h3.21c0.24,0,0.46,0.09,0.64,0.28s0.28,0.4,0.28,0.64v10.55
			c0,1.01-0.35,1.87-1.06,2.57c-0.73,0.73-1.61,1.1-2.62,1.1h-5.74c-0.4,0-0.73-0.14-1.01-0.41c-0.24-0.24-0.37-0.57-0.37-0.96
			V474.83z M244.49,458.08c0-0.58,0.24-1.07,0.73-1.47c0.49-0.4,1.09-0.6,1.79-0.6c0.7,0,1.3,0.2,1.79,0.6
			c0.49,0.4,0.73,0.89,0.73,1.47c0,0.58-0.25,1.07-0.73,1.47c-0.49,0.4-1.09,0.6-1.79,0.6c-0.7,0-1.3-0.2-1.79-0.6
			C244.73,459.15,244.49,458.66,244.49,458.08z"/>
	</g>
	<g>
		<path class="st10" d="M106.75,503.02c-0.56,0-0.95-0.11-1.19-0.32c-0.24-0.21-0.35-0.47-0.35-0.8c0-0.25,0.06-0.52,0.19-0.83
			l0.85-2.14c0.11-0.29,0.3-0.52,0.55-0.71c0.25-0.18,0.54-0.28,0.88-0.28h2.62c0.08,0,0.15,0.03,0.22,0.09
			c0.06,0.06,0.09,0.13,0.09,0.21v3.08h0.85v1.7H106.75z M106.82,496.16c0-0.2,0.08-0.36,0.25-0.49c0.16-0.13,0.36-0.2,0.6-0.2
			s0.44,0.07,0.6,0.2c0.16,0.13,0.25,0.3,0.25,0.49s-0.08,0.36-0.25,0.49c-0.16,0.13-0.36,0.2-0.6,0.2s-0.44-0.07-0.6-0.2
			C106.9,496.52,106.82,496.36,106.82,496.16z M108.9,499.63h-1.14l-0.66,1.7h1.8V499.63z M108.83,496.16c0-0.2,0.08-0.36,0.25-0.49
			c0.16-0.13,0.36-0.2,0.6-0.2c0.24,0,0.44,0.07,0.6,0.2c0.16,0.13,0.25,0.3,0.25,0.49s-0.08,0.36-0.25,0.49
			c-0.16,0.13-0.36,0.2-0.6,0.2c-0.24,0-0.44-0.07-0.6-0.2C108.91,496.52,108.83,496.36,108.83,496.16z"/>
		<path class="st10" d="M110.98,501.79c0-0.13,0.04-0.25,0.12-0.34c0.09-0.08,0.21-0.12,0.34-0.12h1.46v-3.08
			c0-0.08,0.03-0.15,0.09-0.21c0.06-0.06,0.13-0.09,0.22-0.09h1.08c0.08,0,0.15,0.03,0.22,0.09c0.06,0.06,0.09,0.13,0.09,0.21v3.08
			h1.46v1.7h-4.62c-0.13,0-0.25-0.05-0.34-0.14c-0.08-0.08-0.12-0.19-0.12-0.32V501.79z M111.45,504.64c0-0.2,0.08-0.36,0.25-0.49
			c0.16-0.13,0.36-0.2,0.6-0.2s0.44,0.07,0.6,0.2c0.16,0.13,0.25,0.3,0.25,0.49s-0.08,0.36-0.25,0.49c-0.16,0.13-0.36,0.2-0.6,0.2
			s-0.44-0.07-0.6-0.2C111.53,505,111.45,504.84,111.45,504.64z M113.45,504.64c0-0.2,0.08-0.36,0.25-0.49
			c0.16-0.13,0.36-0.2,0.6-0.2s0.44,0.07,0.6,0.2c0.16,0.13,0.25,0.3,0.25,0.49s-0.08,0.36-0.25,0.49c-0.16,0.13-0.36,0.2-0.6,0.2
			s-0.44-0.07-0.6-0.2C113.53,505,113.45,504.84,113.45,504.64z"/>
		<path class="st10" d="M115.61,501.79c0-0.13,0.04-0.25,0.12-0.34c0.09-0.08,0.21-0.12,0.34-0.12h3.08v1.7h-3.08
			c-0.13,0-0.25-0.05-0.34-0.14c-0.08-0.08-0.12-0.19-0.12-0.32V501.79z"/>
		<path class="st10" d="M118.69,501.79c0-0.13,0.04-0.25,0.12-0.34c0.09-0.08,0.21-0.12,0.34-0.12h1.46v-3.08
			c0-0.08,0.03-0.15,0.09-0.21c0.06-0.06,0.13-0.09,0.22-0.09H122c0.08,0,0.15,0.03,0.22,0.09c0.06,0.06,0.09,0.13,0.09,0.21v3.54
			c0,0.34-0.12,0.63-0.35,0.86c-0.25,0.25-0.54,0.37-0.88,0.37h-1.93c-0.13,0-0.25-0.05-0.34-0.14c-0.08-0.08-0.12-0.19-0.12-0.32
			V501.79z M119.86,504.64c0-0.2,0.08-0.36,0.25-0.49c0.16-0.13,0.36-0.2,0.6-0.2s0.44,0.07,0.6,0.2c0.16,0.13,0.25,0.3,0.25,0.49
			s-0.08,0.36-0.25,0.49c-0.16,0.13-0.36,0.2-0.6,0.2s-0.44-0.07-0.6-0.2C119.94,505,119.86,504.84,119.86,504.64z"/>
		<path class="st10" d="M125.39,494.55c0.08,0,0.15,0.03,0.22,0.09c0.06,0.06,0.09,0.13,0.09,0.22v6.47h0.85v1.7h-2.23
			c-0.08,0-0.15-0.03-0.22-0.09c-0.06-0.06-0.09-0.13-0.09-0.22v-7.86c0-0.08,0.03-0.15,0.09-0.22c0.06-0.06,0.13-0.09,0.22-0.09
			H125.39z"/>
		<path class="st10" d="M126.09,501.79c0-0.13,0.04-0.25,0.12-0.34c0.09-0.08,0.21-0.12,0.34-0.12h1.46v-3.08
			c0-0.08,0.03-0.15,0.09-0.21c0.06-0.06,0.13-0.09,0.22-0.09h1.08c0.08,0,0.15,0.03,0.22,0.09c0.06,0.06,0.09,0.13,0.09,0.21v3.08
			h1.46v1.7h-4.62c-0.13,0-0.25-0.05-0.34-0.14c-0.08-0.08-0.12-0.19-0.12-0.32V501.79z M128.01,504.64c0-0.2,0.08-0.36,0.25-0.49
			c0.16-0.13,0.36-0.2,0.6-0.2c0.24,0,0.44,0.07,0.6,0.2c0.16,0.13,0.25,0.3,0.25,0.49s-0.08,0.36-0.25,0.49
			c-0.16,0.13-0.36,0.2-0.6,0.2c-0.24,0-0.44-0.07-0.6-0.2C128.1,505,128.01,504.84,128.01,504.64z"/>
		<path class="st10" d="M132.64,498.24c0-0.08,0.03-0.15,0.09-0.21c0.06-0.06,0.13-0.09,0.22-0.09h1.08c0.08,0,0.15,0.03,0.22,0.09
			c0.06,0.06,0.09,0.13,0.09,0.21v3.08h1.39v-3.08c0-0.08,0.03-0.15,0.09-0.21c0.06-0.06,0.13-0.09,0.22-0.09h1.08
			c0.08,0,0.15,0.03,0.22,0.09c0.06,0.06,0.09,0.13,0.09,0.21v3.08h1.39v-3.08c0-0.08,0.03-0.15,0.09-0.21
			c0.06-0.06,0.13-0.09,0.22-0.09h1.08c0.08,0,0.15,0.03,0.22,0.09c0.06,0.06,0.09,0.13,0.09,0.21v3.54c0,0.34-0.12,0.63-0.35,0.86
			c-0.25,0.25-0.54,0.37-0.88,0.37h-8.09c-0.13,0-0.25-0.05-0.34-0.14c-0.08-0.08-0.12-0.19-0.12-0.32v-0.77
			c0-0.13,0.04-0.25,0.12-0.34c0.09-0.08,0.21-0.12,0.34-0.12h1.46V498.24z M134.72,496.47c0-0.2,0.08-0.36,0.25-0.49
			c0.16-0.13,0.36-0.2,0.6-0.2s0.44,0.07,0.6,0.2c0.16,0.13,0.25,0.3,0.25,0.49s-0.08,0.36-0.25,0.49c-0.16,0.13-0.36,0.2-0.6,0.2
			s-0.44-0.07-0.6-0.2C134.8,496.83,134.72,496.67,134.72,496.47z M135.72,494.93c0-0.19,0.08-0.36,0.25-0.49
			c0.16-0.13,0.36-0.2,0.6-0.2c0.24,0,0.44,0.07,0.6,0.2c0.16,0.13,0.25,0.3,0.25,0.49c0,0.2-0.08,0.36-0.25,0.49
			c-0.16,0.13-0.37,0.2-0.6,0.2c-0.24,0-0.44-0.07-0.6-0.2C135.8,495.29,135.72,495.13,135.72,494.93z M136.72,496.47
			c0-0.2,0.08-0.36,0.25-0.49c0.16-0.13,0.36-0.2,0.6-0.2s0.44,0.07,0.6,0.2c0.16,0.13,0.25,0.3,0.25,0.49s-0.08,0.36-0.25,0.49
			c-0.16,0.13-0.36,0.2-0.6,0.2s-0.44-0.07-0.6-0.2C136.8,496.83,136.72,496.67,136.72,496.47z"/>
		<path class="st10" d="M145.58,503.02c-0.56,0-0.95-0.11-1.19-0.32c-0.24-0.21-0.35-0.47-0.35-0.8c0-0.25,0.06-0.52,0.19-0.83
			l0.85-2.14c0.11-0.29,0.3-0.52,0.55-0.71c0.25-0.18,0.54-0.28,0.88-0.28h2.62c0.08,0,0.15,0.03,0.22,0.09
			c0.06,0.06,0.09,0.13,0.09,0.21v3.08h0.85v1.7H145.58z M145.66,496.16c0-0.2,0.08-0.36,0.25-0.49c0.16-0.13,0.36-0.2,0.6-0.2
			s0.44,0.07,0.6,0.2c0.16,0.13,0.25,0.3,0.25,0.49s-0.08,0.36-0.25,0.49c-0.16,0.13-0.36,0.2-0.6,0.2s-0.44-0.07-0.6-0.2
			C145.74,496.52,145.66,496.36,145.66,496.16z M147.74,499.63h-1.14l-0.66,1.7h1.8V499.63z M147.66,496.16
			c0-0.2,0.08-0.36,0.25-0.49c0.16-0.13,0.36-0.2,0.6-0.2c0.24,0,0.44,0.07,0.6,0.2c0.16,0.13,0.25,0.3,0.25,0.49
			s-0.08,0.36-0.25,0.49c-0.16,0.13-0.36,0.2-0.6,0.2c-0.24,0-0.44-0.07-0.6-0.2C147.75,496.52,147.66,496.36,147.66,496.16z"/>
		<path class="st10" d="M149.82,501.79c0-0.13,0.04-0.25,0.12-0.34c0.09-0.08,0.21-0.12,0.34-0.12h3.08v1.7h-3.08
			c-0.13,0-0.25-0.05-0.34-0.14c-0.08-0.08-0.12-0.19-0.12-0.32V501.79z"/>
		<path class="st10" d="M152.9,501.79c0-0.13,0.04-0.25,0.12-0.34c0.09-0.08,0.21-0.12,0.34-0.12h2.23v-3.08
			c0-0.08,0.03-0.15,0.09-0.21c0.06-0.06,0.13-0.09,0.22-0.09h1.08c0.08,0,0.15,0.03,0.22,0.09c0.06,0.06,0.09,0.13,0.09,0.21v3.54
			c0,0.34-0.12,0.63-0.35,0.86c-0.25,0.25-0.54,0.37-0.88,0.37h-2.7c-0.13,0-0.25-0.05-0.34-0.14c-0.08-0.08-0.12-0.19-0.12-0.32
			V501.79z M153.06,505.1c0-0.2,0.08-0.36,0.25-0.49c0.16-0.13,0.36-0.2,0.6-0.2c0.24,0,0.44,0.07,0.6,0.2
			c0.16,0.13,0.25,0.3,0.25,0.49c0,0.19-0.08,0.36-0.25,0.49c-0.16,0.13-0.36,0.2-0.6,0.2c-0.24,0-0.44-0.07-0.6-0.2
			C153.14,505.46,153.06,505.3,153.06,505.1z M155.06,505.1c0-0.2,0.08-0.36,0.25-0.49c0.16-0.13,0.36-0.2,0.6-0.2
			s0.44,0.07,0.6,0.2c0.16,0.13,0.25,0.3,0.25,0.49c0,0.19-0.08,0.36-0.25,0.49c-0.16,0.13-0.36,0.2-0.6,0.2s-0.44-0.07-0.6-0.2
			C155.14,505.46,155.06,505.3,155.06,505.1z"/>
		<path class="st10" d="M160.69,497.94c0.08,0,0.15,0.03,0.22,0.09c0.06,0.06,0.09,0.13,0.09,0.21v3.08h0.85v1.7H161
			c0,0.46-0.06,0.86-0.18,1.2c-0.12,0.34-0.29,0.62-0.51,0.83s-0.47,0.38-0.76,0.48c-0.3,0.1-0.62,0.15-0.96,0.15
			c-0.37,0-0.74-0.05-1.11-0.15l0.37-1.46c0.15,0.03,0.3,0.05,0.45,0.05c0.3,0,0.54-0.08,0.72-0.25c0.19-0.17,0.28-0.46,0.28-0.85
			v-4.78c0-0.08,0.03-0.15,0.09-0.21c0.06-0.06,0.13-0.09,0.22-0.09H160.69z"/>
		<path class="st10" d="M161.38,501.79c0-0.13,0.04-0.25,0.12-0.34c0.09-0.08,0.21-0.12,0.34-0.12h1.46v-3.08
			c0-0.08,0.03-0.15,0.09-0.21c0.06-0.06,0.13-0.09,0.22-0.09h1.08c0.08,0,0.15,0.03,0.22,0.09c0.06,0.06,0.09,0.13,0.09,0.21v3.08
			h1.46v1.7h-4.62c-0.13,0-0.25-0.05-0.34-0.14c-0.08-0.08-0.12-0.19-0.12-0.32V501.79z M161.84,504.64c0-0.2,0.08-0.36,0.25-0.49
			c0.16-0.13,0.36-0.2,0.6-0.2s0.44,0.07,0.6,0.2c0.16,0.13,0.25,0.3,0.25,0.49s-0.08,0.36-0.25,0.49c-0.16,0.13-0.36,0.2-0.6,0.2
			s-0.44-0.07-0.6-0.2C161.93,505,161.84,504.84,161.84,504.64z M163.85,504.64c0-0.2,0.08-0.36,0.25-0.49
			c0.16-0.13,0.36-0.2,0.6-0.2s0.44,0.07,0.6,0.2c0.16,0.13,0.25,0.3,0.25,0.49s-0.08,0.36-0.25,0.49c-0.16,0.13-0.36,0.2-0.6,0.2
			s-0.44-0.07-0.6-0.2C163.93,505,163.85,504.84,163.85,504.64z"/>
		<path class="st10" d="M166,501.79c0-0.13,0.04-0.25,0.12-0.34c0.09-0.08,0.21-0.12,0.34-0.12h3.58c-0.09-0.22-0.19-0.45-0.28-0.71
			c-0.09-0.26-0.2-0.5-0.32-0.72c-0.12-0.23-0.27-0.42-0.43-0.57c-0.17-0.15-0.39-0.23-0.63-0.23c-0.17,0-0.34,0.03-0.51,0.09
			c-0.16,0.06-0.32,0.15-0.48,0.26l-0.46-1.2c0.28-0.23,0.59-0.41,0.92-0.55c0.34-0.14,0.67-0.22,1-0.22c0.47,0,0.85,0.13,1.14,0.4
			c0.29,0.27,0.53,0.6,0.74,0.99s0.4,0.81,0.57,1.25c0.16,0.45,0.36,0.86,0.59,1.22h0.74v1.7h-6.17c-0.13,0-0.25-0.05-0.34-0.14
			c-0.08-0.08-0.12-0.19-0.12-0.32V501.79z M168.01,496.01c0-0.2,0.08-0.36,0.25-0.49c0.16-0.13,0.36-0.2,0.6-0.2
			c0.24,0,0.44,0.07,0.6,0.2c0.16,0.13,0.25,0.3,0.25,0.49s-0.08,0.36-0.25,0.49c-0.16,0.13-0.37,0.2-0.6,0.2
			c-0.24,0-0.44-0.07-0.6-0.2C168.09,496.37,168.01,496.21,168.01,496.01z"/>
		<path class="st10" d="M177.49,503.02c-0.56,0-0.95-0.11-1.19-0.32c-0.24-0.21-0.35-0.47-0.35-0.8c0-0.25,0.06-0.52,0.19-0.83
			l0.85-2.14c0.11-0.29,0.3-0.52,0.55-0.71c0.25-0.18,0.54-0.28,0.88-0.28h2.62c0.08,0,0.15,0.03,0.22,0.09
			c0.06,0.06,0.09,0.13,0.09,0.21v3.08h0.85v1.7H177.49z M177.56,496.16c0-0.2,0.08-0.36,0.25-0.49c0.16-0.13,0.36-0.2,0.6-0.2
			s0.44,0.07,0.6,0.2c0.16,0.13,0.25,0.3,0.25,0.49s-0.08,0.36-0.25,0.49c-0.16,0.13-0.36,0.2-0.6,0.2s-0.44-0.07-0.6-0.2
			C177.65,496.52,177.56,496.36,177.56,496.16z M179.64,499.63h-1.14l-0.66,1.7h1.8V499.63z M179.57,496.16
			c0-0.2,0.08-0.36,0.25-0.49c0.16-0.13,0.36-0.2,0.6-0.2c0.24,0,0.44,0.07,0.6,0.2c0.16,0.13,0.25,0.3,0.25,0.49
			s-0.08,0.36-0.25,0.49c-0.16,0.13-0.36,0.2-0.6,0.2c-0.24,0-0.44-0.07-0.6-0.2C179.65,496.52,179.57,496.36,179.57,496.16z"/>
		<path class="st10" d="M181.73,501.79c0-0.13,0.04-0.25,0.12-0.34c0.09-0.08,0.21-0.12,0.34-0.12h1.46v-3.08
			c0-0.08,0.03-0.15,0.09-0.21c0.06-0.06,0.13-0.09,0.22-0.09h1.08c0.08,0,0.15,0.03,0.22,0.09c0.06,0.06,0.09,0.13,0.09,0.21v3.08
			h1.46v1.7h-4.62c-0.13,0-0.25-0.05-0.34-0.14c-0.08-0.08-0.12-0.19-0.12-0.32V501.79z M182.19,504.64c0-0.2,0.08-0.36,0.25-0.49
			c0.16-0.13,0.36-0.2,0.6-0.2s0.44,0.07,0.6,0.2c0.16,0.13,0.25,0.3,0.25,0.49s-0.08,0.36-0.25,0.49c-0.16,0.13-0.36,0.2-0.6,0.2
			s-0.44-0.07-0.6-0.2C182.27,505,182.19,504.84,182.19,504.64z M184.19,504.64c0-0.2,0.08-0.36,0.25-0.49
			c0.16-0.13,0.36-0.2,0.6-0.2s0.44,0.07,0.6,0.2c0.16,0.13,0.25,0.3,0.25,0.49s-0.08,0.36-0.25,0.49c-0.16,0.13-0.36,0.2-0.6,0.2
			s-0.44-0.07-0.6-0.2C184.27,505,184.19,504.84,184.19,504.64z"/>
		<path class="st10" d="M186.35,501.79c0-0.13,0.04-0.25,0.12-0.34c0.09-0.08,0.21-0.12,0.34-0.12h3.08v1.7h-3.08
			c-0.13,0-0.25-0.05-0.34-0.14c-0.08-0.08-0.12-0.19-0.12-0.32V501.79z"/>
		<path class="st10" d="M189.43,501.79c0-0.13,0.04-0.25,0.12-0.34c0.09-0.08,0.21-0.12,0.34-0.12h1.74l-0.72-1.26
			c-0.05-0.1-0.09-0.22-0.12-0.35c-0.03-0.12-0.05-0.25-0.05-0.37c0-0.17,0.03-0.35,0.08-0.52c0.05-0.16,0.13-0.31,0.23-0.45
			c0.1-0.12,0.23-0.23,0.39-0.31c0.15-0.08,0.33-0.12,0.54-0.12h3.54c0.21,0,0.39,0.04,0.54,0.12c0.15,0.08,0.28,0.18,0.39,0.31
			c0.1,0.13,0.18,0.28,0.23,0.45c0.05,0.17,0.08,0.35,0.08,0.52c0,0.12-0.01,0.25-0.03,0.37c-0.03,0.12-0.08,0.24-0.14,0.35
			l-0.74,1.26h1.76v1.7h-7.71c-0.13,0-0.25-0.05-0.34-0.14c-0.08-0.08-0.12-0.19-0.12-0.32V501.79z M192.59,499.63l0.91,1.7h0.48
			l0.91-1.7H192.59z"/>
		<path class="st10" d="M197.14,501.79c0-0.13,0.04-0.25,0.12-0.34c0.09-0.08,0.21-0.12,0.34-0.12h0.85v-0.8
			c0-0.4,0.08-0.74,0.23-1.03c0.14-0.28,0.34-0.51,0.59-0.69c0.24-0.17,0.51-0.3,0.82-0.39c0.3-0.08,0.6-0.12,0.91-0.12
			c0.31,0,0.62,0.04,0.92,0.12c0.31,0.09,0.58,0.23,0.82,0.42c0.24,0.19,0.43,0.42,0.59,0.71c0.14,0.29,0.22,0.63,0.22,1.03v0.75
			h0.85v1.7h-1.28c-0.24,0.27-0.54,0.46-0.92,0.59c-0.38,0.12-0.77,0.18-1.17,0.18c-0.42,0-0.82-0.06-1.2-0.18
			c-0.38-0.13-0.7-0.33-0.96-0.59h-1.25c-0.13,0-0.25-0.05-0.34-0.14c-0.08-0.08-0.12-0.19-0.12-0.32V501.79z M200.14,501.64
			c0,0.15,0.09,0.27,0.26,0.34c0.17,0.08,0.37,0.12,0.59,0.12c0.21,0,0.4-0.04,0.59-0.12c0.17-0.07,0.26-0.19,0.26-0.34v-0.99
			c0-0.24-0.09-0.41-0.26-0.51c-0.19-0.1-0.38-0.15-0.59-0.15c-0.22,0-0.41,0.05-0.59,0.15c-0.17,0.1-0.26,0.27-0.26,0.51V501.64z"
			/>
		<path class="st10" d="M203.92,501.79c0-0.13,0.04-0.25,0.12-0.34c0.09-0.08,0.21-0.12,0.34-0.12h3.58
			c-0.09-0.22-0.19-0.45-0.28-0.71c-0.09-0.26-0.2-0.5-0.32-0.72c-0.12-0.23-0.27-0.42-0.43-0.57c-0.17-0.15-0.39-0.23-0.63-0.23
			c-0.17,0-0.34,0.03-0.51,0.09c-0.16,0.06-0.32,0.15-0.48,0.26l-0.46-1.2c0.28-0.23,0.59-0.41,0.92-0.55
			c0.34-0.14,0.67-0.22,1-0.22c0.47,0,0.85,0.13,1.14,0.4c0.29,0.27,0.53,0.6,0.74,0.99s0.4,0.81,0.57,1.25
			c0.16,0.45,0.36,0.86,0.59,1.22h0.74v1.7h-6.17c-0.13,0-0.25-0.05-0.34-0.14c-0.08-0.08-0.12-0.19-0.12-0.32V501.79z M207,504.64
			c0-0.2,0.08-0.36,0.25-0.49c0.16-0.13,0.36-0.2,0.6-0.2s0.44,0.07,0.6,0.2c0.16,0.13,0.25,0.3,0.25,0.49s-0.08,0.36-0.25,0.49
			c-0.16,0.13-0.36,0.2-0.6,0.2s-0.44-0.07-0.6-0.2C207.08,505,207,504.84,207,504.64z"/>
	</g>
	<path class="st9" d="M89.09,287.8v147.35h137.34V287.8H89.09z M206.21,330.28c7.71,15.34-6.12,39.37-30.99,53.58
		c-8.32,4.76-16.86,7.86-24.8,9.22c-1.13-4.61-1.81-9.67-1.81-14.96c8.09,0.3,17.77-2.19,27.21-7.56
		c18.75-10.73,29.18-28.87,23.36-40.43c-2.72-5.36-8.38-8.39-15.64-8.99c-2.2-0.98-4.46-1.89-6.73-2.72
		C190.41,317.13,201.6,321.13,206.21,330.28z M154.21,292.72c5.37,0,9.68,4.31,9.68,9.67c0,5.36-4.31,9.67-9.68,9.67
		c-5.29,0-9.6-4.31-9.6-9.67C144.61,297.03,148.92,292.72,154.21,292.72z M103.11,332.02c13.46-20.33,52.76-20.33,87.91,0.07
		c1.44,0.83,2.8,1.66,4.16,2.57c0,5.37-2.34,11.41-6.58,17.23c-5.06-4.91-11.19-9.52-18.06-13.53
		c-26.39-15.34-55.71-16.62-68.87-3.85C102.12,333.68,102.58,332.85,103.11,332.02z M100.31,341.84c9.45-14.36,37.12-14.36,61.83,0
		c8.39,4.84,15.27,10.73,20.49,16.85c-3.48,3.33-7.56,6.42-12.09,9.07c-3.78-7.1-10.81-14.28-20.19-19.72
		c-18.67-10.88-39.53-10.88-46.64-0.08c-3.33,4.99-3.1,11.49,0,18.06c0.22,2.42,0.6,4.84,0.98,7.18
		C96.83,362.09,94.64,350.38,100.31,341.84z M106.96,409.17c-4.61,2.65-10.5,1.06-13.23-3.55c-2.64-4.61-1.06-10.58,3.56-13.23
		c4.61-2.64,10.5-1.05,13.23,3.55C113.16,400.56,111.57,406.45,106.96,409.17z M153.38,430.18c-24.34-1.44-44-35.52-43.92-76.1
		c0-1.66,0.07-3.25,0.15-4.91c4.69-2.72,11.11-3.63,18.22-2.87c-1.74,6.8-2.65,14.36-2.72,22.37
		c-0.07,30.53,13.46,56.52,31.14,61.51C155.26,430.26,154.36,430.26,153.38,430.18z M163.2,427.76
		c-17.09-0.98-30.92-25.01-30.84-53.58c0-9.67,1.59-18.59,4.38-26.15c4.61,1.36,9.3,3.33,13.91,5.89
		c-4.38,6.88-7.03,16.55-7.1,27.43c0,21.53,10.43,39.6,23.36,40.35c5.97,0.38,11.41-3.1,15.57-8.99c2.04-1.44,3.93-2.95,5.74-4.46
		C182.55,420.66,173.48,428.36,163.2,427.76z M169.25,413.71c-1.43,0.75-2.8,1.59-4.23,2.26c-4.69-2.64-8.77-7.71-11.64-14.28
		c6.73-1.97,13.76-4.92,20.71-8.85c26.46-15.19,42.26-39.9,37.72-57.74c0.53,0.83,0.98,1.66,1.44,2.49
		C224.2,359.45,204.48,393.45,169.25,413.71z M221.78,401.54c-2.72,4.61-8.62,6.2-13.23,3.55c-4.61-2.72-6.2-8.61-3.56-13.22
		c2.72-4.61,8.62-6.2,13.23-3.55C222.84,391.04,224.43,396.93,221.78,401.54z"/>
</g>
</svg>
